<svg version="1.1" xmlns="http://www.w3.org/2000/svg" xmlns:xlink="http://www.w3.org/1999/xlink" width="1532" height="967"><defs><clipPath id="IFcJwPwKuCTd"><path fill="none" stroke="none" d=" M 0 0 L 1532 0 L 1532 967 L 0 967 L 0 0 Z"/></clipPath></defs><g transform="scale(1,1)" clip-path="url(#IFcJwPwKuCTd)"><g><path fill="none" stroke="rgb(0,0,0)" paint-order="fill stroke markers" d=" M 732.8084417596351 433.95748677456584 L 732.8084417596351 612.6939735861838" stroke-opacity="0.6980392156862745" stroke-linejoin="round" stroke-miterlimit="10" stroke-width="2.5" stroke-dasharray="10.5,8"/><path fill="none" stroke="rgb(0,0,0)" paint-order="fill stroke markers" d=" M 732.8084417596351 433.95748677456584 L 509.6170791183555 433.95748677456584" stroke-opacity="0.6980392156862745" stroke-linejoin="round" stroke-miterlimit="10" stroke-width="2.5" stroke-dasharray="10.5,8"/><path fill="rgb(77,77,255)" stroke="none" paint-order="stroke fill markers" d=" M 737.8084417596351 433.95748677456584 C 737.8084417596351 436.7189105237198 735.5698655087891 438.95748677456584 732.8084417596351 438.95748677456584 C 730.0470180104811 438.95748677456584 727.8084417596351 436.7189105237198 727.8084417596351 433.95748677456584 C 727.8084417596351 431.1960630254119 730.0470180104811 428.95748677456584 732.8084417596351 428.95748677456584 C 735.5698655087891 428.95748677456584 737.8084417596351 431.1960630254119 737.8084417596351 433.95748677456584 Z" fill-opacity="1"/><path fill="none" stroke="rgb(0,0,0)" paint-order="fill stroke markers" d=" M 737.8084417596351 433.95748677456584 C 737.8084417596351 436.7189105237198 735.5698655087891 438.95748677456584 732.8084417596351 438.95748677456584 C 730.0470180104811 438.95748677456584 727.8084417596351 436.7189105237198 727.8084417596351 433.95748677456584 C 727.8084417596351 431.1960630254119 730.0470180104811 428.95748677456584 732.8084417596351 428.95748677456584 C 735.5698655087891 428.95748677456584 737.8084417596351 431.1960630254119 737.8084417596351 433.95748677456584 Z" stroke-opacity="1" stroke-linecap="round" stroke-linejoin="round" stroke-miterlimit="10"/><text fill="none" stroke="rgb(255,255,255)" font-family="geogebra-sans-serif, sans-serif" font-size="32px" font-style="normal" font-weight="normal" text-decoration="normal" x="737" y="424" text-anchor="start" dominant-baseline="alphabetic" stroke-opacity="1" stroke-linecap="round" stroke-linejoin="bevel" stroke-miterlimit="10" stroke-width="8">A</text><text fill="rgb(77,77,255)" stroke="none" font-family="geogebra-sans-serif, sans-serif" font-size="32px" font-style="normal" font-weight="normal" text-decoration="normal" x="737" y="424" text-anchor="start" dominant-baseline="alphabetic" fill-opacity="1">A</text><path fill="rgb(77,77,255)" stroke="none" paint-order="stroke fill markers" d=" M 737.8084417596351 612.6939735861838 C 737.8084417596351 615.4553973353378 735.5698655087891 617.6939735861838 732.8084417596351 617.6939735861838 C 730.0470180104811 617.6939735861838 727.8084417596351 615.4553973353378 727.8084417596351 612.6939735861838 C 727.8084417596351 609.9325498370298 730.0470180104811 607.6939735861838 732.8084417596351 607.6939735861838 C 735.5698655087891 607.6939735861838 737.8084417596351 609.9325498370298 737.8084417596351 612.6939735861838 Z" fill-opacity="1"/><path fill="none" stroke="rgb(0,0,0)" paint-order="fill stroke markers" d=" M 737.8084417596351 612.6939735861838 C 737.8084417596351 615.4553973353378 735.5698655087891 617.6939735861838 732.8084417596351 617.6939735861838 C 730.0470180104811 617.6939735861838 727.8084417596351 615.4553973353378 727.8084417596351 612.6939735861838 C 727.8084417596351 609.9325498370298 730.0470180104811 607.6939735861838 732.8084417596351 607.6939735861838 C 735.5698655087891 607.6939735861838 737.8084417596351 609.9325498370298 737.8084417596351 612.6939735861838 Z" stroke-opacity="1" stroke-linecap="round" stroke-linejoin="round" stroke-miterlimit="10"/><g transform="scale(35,35)"><g transform="translate(21.257142857142856,16.659126428571426)"><path fill="rgb(77,77,255)" stroke="none" paint-order="stroke fill markers" d=" M 0.334 -0.302 L 0.3 -0.165 Q 0.28300000000000003 -0.097 0.28300000000000003 -0.077 Q 0.28300000000000003 -0.025 0.32 -0.014 Q 0.328 -0.011 0.338 -0.011 Q 0.388 -0.011 0.429 -0.061 Q 0.456 -0.093 0.47100000000000003 -0.14200000000000002 Q 0.47400000000000003 -0.153 0.484 -0.153 Q 0.496 -0.153 0.496 -0.14300000000000002 Q 0.496 -0.11800000000000001 0.465 -0.07100000000000001 Q 0.41100000000000003 0.011 0.336 0.011 Q 0.268 0.011 0.23700000000000002 -0.046 Q 0.231 -0.055 0.228 -0.065 Q 0.20400000000000001 -0.017 0.162 0.002 Q 0.14300000000000002 0.011 0.123 0.011 Q 0.063 0.011 0.039 -0.024 Q 0.029 -0.037 0.029 -0.055 Q 0.029 -0.092 0.061 -0.107 Q 0.07200000000000001 -0.113 0.084 -0.113 Q 0.114 -0.113 0.12 -0.088 Q 0.121 -0.083 0.121 -0.078 Q 0.121 -0.044 0.08700000000000001 -0.028 Q 0.081 -0.025 0.074 -0.024 Q 0.095 -0.011 0.124 -0.011 Q 0.177 -0.011 0.20800000000000002 -0.082 Q 0.214 -0.097 0.219 -0.115 Q 0.273 -0.319 0.273 -0.353 Q 0.267 -0.41500000000000004 0.219 -0.42 Q 0.167 -0.42 0.124 -0.367 L 0.124 -0.366 Q 0.124 -0.365 0.123 -0.365 Q 0.108 -0.34500000000000003 0.096 -0.319 Q 0.091 -0.307 0.08700000000000001 -0.295 L 0.085 -0.289 Q 0.083 -0.278 0.07200000000000001 -0.278 Q 0.06 -0.278 0.06 -0.28800000000000003 Q 0.06 -0.313 0.092 -0.36 Q 0.146 -0.442 0.221 -0.442 Q 0.298 -0.442 0.329 -0.366 Q 0.361 -0.428 0.41400000000000003 -0.44 Q 0.424 -0.442 0.434 -0.442 Q 0.493 -0.442 0.517 -0.40900000000000003 Q 0.527 -0.395 0.527 -0.376 Q 0.527 -0.335 0.49 -0.321 Q 0.481 -0.318 0.47300000000000003 -0.318 Q 0.442 -0.318 0.436 -0.34500000000000003 Q 0.435 -0.34900000000000003 0.435 -0.353 Q 0.435 -0.383 0.464 -0.4 Q 0.47300000000000003 -0.405 0.483 -0.40700000000000003 Q 0.462 -0.42 0.433 -0.42 Q 0.365 -0.42 0.337 -0.314 Q 0.335 -0.308 0.334 -0.302 Z"/></g><g transform="translate(21.828670857142857,16.809126428571425) scale(0.7,0.7)"><path fill="rgb(77,77,255)" stroke="none" paint-order="stroke fill markers" d=" M 0.179 -0.115 L 0.527 -0.6990000000000001 Q 0.537 -0.715 0.553 -0.716 Q 0.5680000000000001 -0.716 0.5700000000000001 -0.706 Q 0.5710000000000001 -0.7030000000000001 0.5720000000000001 -0.6920000000000001 L 0.633 -0.067 Q 0.636 -0.042 0.645 -0.037 L 0.646 -0.037 L 0.646 -0.037 L 0.646 -0.037 L 0.646 -0.037 L 0.646 -0.036000000000000004 Q 0.658 -0.031 0.6980000000000001 -0.031 Q 0.72 -0.031 0.721 -0.02 Q 0.721 0 0.7030000000000001 0 L 0.591 -0.003 L 0.59 -0.003 L 0.466 0 L 0.465 0 Q 0.451 0 0.451 -0.011 Q 0.459 -0.03 0.47500000000000003 -0.031 Q 0.547 -0.031 0.547 -0.064 Q 0.547 -0.063 0.531 -0.231 L 0.28 -0.231 L 0.20400000000000001 -0.10300000000000001 Q 0.19 -0.078 0.19 -0.066 Q 0.19 -0.035 0.23700000000000002 -0.031 Q 0.253 -0.031 0.253 -0.019 Q 0.253 0 0.234 0 L 0.138 -0.003 L 0.134 -0.003 L 0.05 0 L 0.048 0 Q 0.035 0 0.035 -0.011 Q 0.035 -0.029 0.05 -0.03 L 0.05 -0.031 L 0.056 -0.031 Q 0.11900000000000001 -0.035 0.159 -0.085 Q 0.169 -0.098 0.179 -0.115 M 0.299 -0.262 L 0.528 -0.262 L 0.496 -0.592 L 0.299 -0.262 Z"/></g></g><path fill="rgb(77,77,255)" stroke="none" paint-order="stroke fill markers" d=" M 514.6170791183555 433.95748677456584 C 514.6170791183555 436.7189105237198 512.3785028675095 438.95748677456584 509.6170791183555 438.95748677456584 C 506.85565536920154 438.95748677456584 504.6170791183555 436.7189105237198 504.6170791183555 433.95748677456584 C 504.6170791183555 431.1960630254119 506.85565536920154 428.95748677456584 509.6170791183555 428.95748677456584 C 512.3785028675095 428.95748677456584 514.6170791183555 431.1960630254119 514.6170791183555 433.95748677456584 Z" fill-opacity="1"/><path fill="none" stroke="rgb(0,0,0)" paint-order="fill stroke markers" d=" M 514.6170791183555 433.95748677456584 C 514.6170791183555 436.7189105237198 512.3785028675095 438.95748677456584 509.6170791183555 438.95748677456584 C 506.85565536920154 438.95748677456584 504.6170791183555 436.7189105237198 504.6170791183555 433.95748677456584 C 504.6170791183555 431.1960630254119 506.85565536920154 428.95748677456584 509.6170791183555 428.95748677456584 C 512.3785028675095 428.95748677456584 514.6170791183555 431.1960630254119 514.6170791183555 433.95748677456584 Z" stroke-opacity="1" stroke-linecap="round" stroke-linejoin="round" stroke-miterlimit="10"/><g transform="scale(35,35)"><g transform="translate(14.885714285714286,11.544840714285714)"><path fill="rgb(77,77,255)" stroke="none" paint-order="stroke fill markers" d=" M 0.486 -0.381 L 0.39 0.001 Q 0.366 0.099 0.28300000000000003 0.16 Q 0.222 0.20500000000000002 0.156 0.20500000000000002 Q 0.089 0.20500000000000002 0.061 0.159 Q 0.05 0.14 0.05 0.11800000000000001 Q 0.05 0.067 0.091 0.055 Q 0.099 0.053 0.106 0.053 Q 0.138 0.053 0.14200000000000002 0.081 Q 0.14300000000000002 0.084 0.14300000000000002 0.088 Q 0.14300000000000002 0.111 0.123 0.129 Q 0.109 0.14100000000000001 0.08 0.14100000000000001 Q 0.098 0.183 0.156 0.183 Q 0.218 0.183 0.266 0.12 Q 0.305 0.068 0.328 -0.021 Q 0.329 -0.025 0.331 -0.034 Q 0.28600000000000003 0.011 0.23 0.011 Q 0.15 0.011 0.121 -0.048 Q 0.108 -0.074 0.108 -0.108 Q 0.108 -0.163 0.161 -0.305 Q 0.163 -0.311 0.166 -0.318 Q 0.183 -0.364 0.183 -0.388 Q 0.183 -0.42 0.158 -0.42 Q 0.10300000000000001 -0.42 0.068 -0.329 L 0.068 -0.328 Q 0.062 -0.313 0.057 -0.296 Q 0.046 -0.279 0.041 -0.278 Q 0.029 -0.278 0.029 -0.28800000000000003 Q 0.029 -0.306 0.05 -0.35100000000000003 Q 0.094 -0.442 0.161 -0.442 Q 0.214 -0.442 0.23500000000000001 -0.397 Q 0.243 -0.38 0.243 -0.36 Q 0.243 -0.339 0.223 -0.28800000000000003 Q 0.17200000000000001 -0.156 0.17200000000000001 -0.092 Q 0.17200000000000001 -0.011 0.234 -0.011 Q 0.292 -0.011 0.335 -0.073 Q 0.34500000000000003 -0.088 0.34700000000000003 -0.096 L 0.392 -0.276 Q 0.399 -0.309 0.41200000000000003 -0.356 Q 0.422 -0.399 0.426 -0.41000000000000003 Q 0.439 -0.431 0.461 -0.431 Q 0.486 -0.426 0.49 -0.404 Q 0.49 -0.395 0.486 -0.381 Z"/></g><g transform="translate(15.375996285714287,11.694840714285714) scale(0.7,0.7)"><path fill="rgb(77,77,255)" stroke="none" paint-order="stroke fill markers" d=" M 0.179 -0.115 L 0.527 -0.6990000000000001 Q 0.537 -0.715 0.553 -0.716 Q 0.5680000000000001 -0.716 0.5700000000000001 -0.706 Q 0.5710000000000001 -0.7030000000000001 0.5720000000000001 -0.6920000000000001 L 0.633 -0.067 Q 0.636 -0.042 0.645 -0.037 L 0.646 -0.037 L 0.646 -0.037 L 0.646 -0.037 L 0.646 -0.037 L 0.646 -0.036000000000000004 Q 0.658 -0.031 0.6980000000000001 -0.031 Q 0.72 -0.031 0.721 -0.02 Q 0.721 0 0.7030000000000001 0 L 0.591 -0.003 L 0.59 -0.003 L 0.466 0 L 0.465 0 Q 0.451 0 0.451 -0.011 Q 0.459 -0.03 0.47500000000000003 -0.031 Q 0.547 -0.031 0.547 -0.064 Q 0.547 -0.063 0.531 -0.231 L 0.28 -0.231 L 0.20400000000000001 -0.10300000000000001 Q 0.19 -0.078 0.19 -0.066 Q 0.19 -0.035 0.23700000000000002 -0.031 Q 0.253 -0.031 0.253 -0.019 Q 0.253 0 0.234 0 L 0.138 -0.003 L 0.134 -0.003 L 0.05 0 L 0.048 0 Q 0.035 0 0.035 -0.011 Q 0.035 -0.029 0.05 -0.03 L 0.05 -0.031 L 0.056 -0.031 Q 0.11900000000000001 -0.035 0.159 -0.085 Q 0.169 -0.098 0.179 -0.115 M 0.299 -0.262 L 0.528 -0.262 L 0.496 -0.592 L 0.299 -0.262 Z"/></g></g><text fill="rgb(0,0,0)" stroke="none" font-family="geogebra-sans-serif, sans-serif" font-size="32px" font-style="normal" font-weight="normal" text-decoration="normal" x="513" y="262" text-anchor="start" dominant-baseline="alphabetic" fill-opacity="1">ordonnées</text><text fill="rgb(0,0,0)" stroke="none" font-family="geogebra-sans-serif, sans-serif" font-size="32px" font-style="normal" font-weight="normal" text-decoration="normal" x="801" y="552" text-anchor="start" dominant-baseline="alphabetic" fill-opacity="1">abscisses</text></g></g></svg>