<svg version="1.1" xmlns="http://www.w3.org/2000/svg" xmlns:xlink="http://www.w3.org/1999/xlink" width="1154" height="961"><defs><clipPath id="eXAWpRsdabaM"><path fill="none" stroke="none" d=" M 0 0 L 1154 0 L 1154 961 L 0 961 L 0 0 Z"/></clipPath></defs><g transform="scale(1,1)" clip-path="url(#eXAWpRsdabaM)"><g><rect fill="rgb(255,255,255)" stroke="none" x="0" y="0" width="1154" height="961" fill-opacity="1"/><path fill="none" stroke="rgb(192,192,192)" paint-order="fill stroke markers" d=" M 49.5 0.5 L 49.5 961.5 M 49.5 0.5 L 49.5 961.5 M 215.5 0.5 L 215.5 961.5 M 298.5 0.5 L 298.5 961.5 M 381.5 0.5 L 381.5 961.5 M 464.5 0.5 L 464.5 961.5 M 547.5 0.5 L 547.5 961.5 M 630.5 0.5 L 630.5 961.5 M 713.5 0.5 L 713.5 961.5 M 796.5 0.5 L 796.5 961.5 M 879.5 0.5 L 879.5 961.5 M 962.5 0.5 L 962.5 961.5 M 1045.5 0.5 L 1045.5 961.5 M 1128.5 0.5 L 1128.5 961.5" stroke-opacity="1" stroke-linecap="round" stroke-linejoin="round" stroke-miterlimit="10"/><path fill="none" stroke="rgb(192,192,192)" paint-order="fill stroke markers" d=" M 16.5 0.5 L 16.5 961.5 M 32.5 0.5 L 32.5 961.5 M 66.5 0.5 L 66.5 961.5 M 82.5 0.5 L 82.5 961.5 M 99.5 0.5 L 99.5 961.5 M 115.5 0.5 L 115.5 961.5 M 149.5 0.5 L 149.5 961.5 M 165.5 0.5 L 165.5 961.5 M 182.5 0.5 L 182.5 961.5 M 199.5 0.5 L 199.5 961.5 M 232.5 0.5 L 232.5 961.5 M 248.5 0.5 L 248.5 961.5 M 265.5 0.5 L 265.5 961.5 M 282.5 0.5 L 282.5 961.5 M 315.5 0.5 L 315.5 961.5 M 331.5 0.5 L 331.5 961.5 M 348.5 0.5 L 348.5 961.5 M 365.5 0.5 L 365.5 961.5 M 398.5 0.5 L 398.5 961.5 M 414.5 0.5 L 414.5 961.5 M 431.5 0.5 L 431.5 961.5 M 448.5 0.5 L 448.5 961.5 M 481.5 0.5 L 481.5 961.5 M 497.5 0.5 L 497.5 961.5 M 514.5 0.5 L 514.5 961.5 M 531.5 0.5 L 531.5 961.5 M 564.5 0.5 L 564.5 961.5 M 580.5 0.5 L 580.5 961.5 M 597.5 0.5 L 597.5 961.5 M 614.5 0.5 L 614.5 961.5 M 647.5 0.5 L 647.5 961.5 M 663.5 0.5 L 663.5 961.5 M 680.5 0.5 L 680.5 961.5 M 697.5 0.5 L 697.5 961.5 M 730.5 0.5 L 730.5 961.5 M 746.5 0.5 L 746.5 961.5 M 763.5 0.5 L 763.5 961.5 M 780.5 0.5 L 780.5 961.5 M 813.5 0.5 L 813.5 961.5 M 829.5 0.5 L 829.5 961.5 M 846.5 0.5 L 846.5 961.5 M 863.5 0.5 L 863.5 961.5 M 896.5 0.5 L 896.5 961.5 M 912.5 0.5 L 912.5 961.5 M 929.5 0.5 L 929.5 961.5 M 946.5 0.5 L 946.5 961.5 M 979.5 0.5 L 979.5 961.5 M 995.5 0.5 L 995.5 961.5 M 1012.5 0.5 L 1012.5 961.5 M 1029.5 0.5 L 1029.5 961.5 M 1062.5 0.5 L 1062.5 961.5 M 1079.5 0.5 L 1079.5 961.5 M 1095.5 0.5 L 1095.5 961.5 M 1112.5 0.5 L 1112.5 961.5 M 1145.5 0.5 L 1145.5 961.5" stroke-opacity="0.23529411764705882" stroke-linecap="round" stroke-linejoin="round" stroke-miterlimit="10"/><path fill="none" stroke="rgb(192,192,192)" paint-order="fill stroke markers" d=" M 0.5 65.5 L 1154.5 65.5 M 0.5 65.5 L 1154.5 65.5 M 0.5 148.5 L 1154.5 148.5 M 0.5 231.5 L 1154.5 231.5 M 0.5 314.5 L 1154.5 314.5 M 0.5 397.5 L 1154.5 397.5 M 0.5 480.5 L 1154.5 480.5 M 0.5 563.5 L 1154.5 563.5 M 0.5 646.5 L 1154.5 646.5 M 0.5 729.5 L 1154.5 729.5 M 0.5 812.5 L 1154.5 812.5" stroke-opacity="1" stroke-linecap="round" stroke-linejoin="round" stroke-miterlimit="10"/><path fill="none" stroke="rgb(192,192,192)" paint-order="fill stroke markers" d=" M 0.5 15.5 L 1154.5 15.5 M 0.5 15.5 L 1154.5 15.5 M 0.5 32.5 L 1154.5 32.5 M 0.5 49.5 L 1154.5 49.5 M 0.5 82.5 L 1154.5 82.5 M 0.5 98.5 L 1154.5 98.5 M 0.5 115.5 L 1154.5 115.5 M 0.5 132.5 L 1154.5 132.5 M 0.5 165.5 L 1154.5 165.5 M 0.5 182.5 L 1154.5 182.5 M 0.5 198.5 L 1154.5 198.5 M 0.5 215.5 L 1154.5 215.5 M 0.5 248.5 L 1154.5 248.5 M 0.5 265.5 L 1154.5 265.5 M 0.5 281.5 L 1154.5 281.5 M 0.5 298.5 L 1154.5 298.5 M 0.5 331.5 L 1154.5 331.5 M 0.5 348.5 L 1154.5 348.5 M 0.5 364.5 L 1154.5 364.5 M 0.5 381.5 L 1154.5 381.5 M 0.5 414.5 L 1154.5 414.5 M 0.5 431.5 L 1154.5 431.5 M 0.5 447.5 L 1154.5 447.5 M 0.5 464.5 L 1154.5 464.5 M 0.5 497.5 L 1154.5 497.5 M 0.5 514.5 L 1154.5 514.5 M 0.5 530.5 L 1154.5 530.5 M 0.5 547.5 L 1154.5 547.5 M 0.5 580.5 L 1154.5 580.5 M 0.5 597.5 L 1154.5 597.5 M 0.5 613.5 L 1154.5 613.5 M 0.5 630.5 L 1154.5 630.5 M 0.5 663.5 L 1154.5 663.5 M 0.5 680.5 L 1154.5 680.5 M 0.5 696.5 L 1154.5 696.5 M 0.5 713.5 L 1154.5 713.5 M 0.5 746.5 L 1154.5 746.5 M 0.5 763.5 L 1154.5 763.5 M 0.5 779.5 L 1154.5 779.5 M 0.5 796.5 L 1154.5 796.5 M 0.5 829.5 L 1154.5 829.5 M 0.5 846.5 L 1154.5 846.5 M 0.5 862.5 L 1154.5 862.5 M 0.5 879.5 L 1154.5 879.5 M 0.5 912.5 L 1154.5 912.5 M 0.5 929.5 L 1154.5 929.5 M 0.5 945.5 L 1154.5 945.5" stroke-opacity="0.23529411764705882" stroke-linecap="round" stroke-linejoin="round" stroke-miterlimit="10"/><path fill="none" stroke="rgb(0,0,0)" paint-order="fill stroke markers" d=" M 133 3 L 133 961" stroke-opacity="1" stroke-miterlimit="10" stroke-width="2"/><path fill="none" stroke="rgb(0,0,0)" paint-order="fill stroke markers" d=" M 133 2 L 124 11" stroke-opacity="1" stroke-miterlimit="10" stroke-width="2"/><path fill="none" stroke="rgb(0,0,0)" paint-order="fill stroke markers" d=" M 133 2 L 142 11" stroke-opacity="1" stroke-miterlimit="10" stroke-width="2"/><text fill="rgb(0,0,0)" stroke="none" font-family="geogebra-sans-serif, sans-serif" font-size="32px" font-style="normal" font-weight="normal" text-decoration="normal" x="1128" y="891" text-anchor="start" dominant-baseline="alphabetic" fill-opacity="1">x</text><path fill="none" stroke="rgb(0,0,0)" paint-order="fill stroke markers" d=" M 0 896 L 1151 896" stroke-opacity="1" stroke-miterlimit="10" stroke-width="2"/><path fill="none" stroke="rgb(0,0,0)" paint-order="fill stroke markers" d=" M 1152 896 L 1143 887" stroke-opacity="1" stroke-miterlimit="10" stroke-width="2"/><path fill="none" stroke="rgb(0,0,0)" paint-order="fill stroke markers" d=" M 1152 896 L 1143 905" stroke-opacity="1" stroke-miterlimit="10" stroke-width="2"/><text fill="none" stroke="rgb(255,255,255)" font-family="geogebra-sans-serif, sans-serif" font-size="24px" font-style="normal" font-weight="bold" text-decoration="normal" x="36" y="923" text-anchor="start" dominant-baseline="alphabetic" stroke-opacity="1" stroke-linejoin="bevel" stroke-miterlimit="10" stroke-width="3">–1</text><text fill="rgb(0,0,0)" stroke="none" font-family="geogebra-sans-serif, sans-serif" font-size="24px" font-style="normal" font-weight="bold" text-decoration="normal" x="36" y="923" text-anchor="start" dominant-baseline="alphabetic" fill-opacity="1">–1</text><text fill="none" stroke="rgb(255,255,255)" font-family="geogebra-sans-serif, sans-serif" font-size="24px" font-style="normal" font-weight="bold" text-decoration="normal" x="209" y="923" text-anchor="start" dominant-baseline="alphabetic" stroke-opacity="1" stroke-linejoin="bevel" stroke-miterlimit="10" stroke-width="3">1</text><text fill="rgb(0,0,0)" stroke="none" font-family="geogebra-sans-serif, sans-serif" font-size="24px" font-style="normal" font-weight="bold" text-decoration="normal" x="209" y="923" text-anchor="start" dominant-baseline="alphabetic" fill-opacity="1">1</text><text fill="none" stroke="rgb(255,255,255)" font-family="geogebra-sans-serif, sans-serif" font-size="24px" font-style="normal" font-weight="bold" text-decoration="normal" x="292" y="923" text-anchor="start" dominant-baseline="alphabetic" stroke-opacity="1" stroke-linejoin="bevel" stroke-miterlimit="10" stroke-width="3">2</text><text fill="rgb(0,0,0)" stroke="none" font-family="geogebra-sans-serif, sans-serif" font-size="24px" font-style="normal" font-weight="bold" text-decoration="normal" x="292" y="923" text-anchor="start" dominant-baseline="alphabetic" fill-opacity="1">2</text><text fill="none" stroke="rgb(255,255,255)" font-family="geogebra-sans-serif, sans-serif" font-size="24px" font-style="normal" font-weight="bold" text-decoration="normal" x="375" y="923" text-anchor="start" dominant-baseline="alphabetic" stroke-opacity="1" stroke-linejoin="bevel" stroke-miterlimit="10" stroke-width="3">3</text><text fill="rgb(0,0,0)" stroke="none" font-family="geogebra-sans-serif, sans-serif" font-size="24px" font-style="normal" font-weight="bold" text-decoration="normal" x="375" y="923" text-anchor="start" dominant-baseline="alphabetic" fill-opacity="1">3</text><text fill="none" stroke="rgb(255,255,255)" font-family="geogebra-sans-serif, sans-serif" font-size="24px" font-style="normal" font-weight="bold" text-decoration="normal" x="458" y="923" text-anchor="start" dominant-baseline="alphabetic" stroke-opacity="1" stroke-linejoin="bevel" stroke-miterlimit="10" stroke-width="3">4</text><text fill="rgb(0,0,0)" stroke="none" font-family="geogebra-sans-serif, sans-serif" font-size="24px" font-style="normal" font-weight="bold" text-decoration="normal" x="458" y="923" text-anchor="start" dominant-baseline="alphabetic" fill-opacity="1">4</text><text fill="none" stroke="rgb(255,255,255)" font-family="geogebra-sans-serif, sans-serif" font-size="24px" font-style="normal" font-weight="bold" text-decoration="normal" x="541" y="923" text-anchor="start" dominant-baseline="alphabetic" stroke-opacity="1" stroke-linejoin="bevel" stroke-miterlimit="10" stroke-width="3">5</text><text fill="rgb(0,0,0)" stroke="none" font-family="geogebra-sans-serif, sans-serif" font-size="24px" font-style="normal" font-weight="bold" text-decoration="normal" x="541" y="923" text-anchor="start" dominant-baseline="alphabetic" fill-opacity="1">5</text><text fill="none" stroke="rgb(255,255,255)" font-family="geogebra-sans-serif, sans-serif" font-size="24px" font-style="normal" font-weight="bold" text-decoration="normal" x="624" y="923" text-anchor="start" dominant-baseline="alphabetic" stroke-opacity="1" stroke-linejoin="bevel" stroke-miterlimit="10" stroke-width="3">6</text><text fill="rgb(0,0,0)" stroke="none" font-family="geogebra-sans-serif, sans-serif" font-size="24px" font-style="normal" font-weight="bold" text-decoration="normal" x="624" y="923" text-anchor="start" dominant-baseline="alphabetic" fill-opacity="1">6</text><text fill="none" stroke="rgb(255,255,255)" font-family="geogebra-sans-serif, sans-serif" font-size="24px" font-style="normal" font-weight="bold" text-decoration="normal" x="707" y="923" text-anchor="start" dominant-baseline="alphabetic" stroke-opacity="1" stroke-linejoin="bevel" stroke-miterlimit="10" stroke-width="3">7</text><text fill="rgb(0,0,0)" stroke="none" font-family="geogebra-sans-serif, sans-serif" font-size="24px" font-style="normal" font-weight="bold" text-decoration="normal" x="707" y="923" text-anchor="start" dominant-baseline="alphabetic" fill-opacity="1">7</text><text fill="none" stroke="rgb(255,255,255)" font-family="geogebra-sans-serif, sans-serif" font-size="24px" font-style="normal" font-weight="bold" text-decoration="normal" x="790" y="923" text-anchor="start" dominant-baseline="alphabetic" stroke-opacity="1" stroke-linejoin="bevel" stroke-miterlimit="10" stroke-width="3">8</text><text fill="rgb(0,0,0)" stroke="none" font-family="geogebra-sans-serif, sans-serif" font-size="24px" font-style="normal" font-weight="bold" text-decoration="normal" x="790" y="923" text-anchor="start" dominant-baseline="alphabetic" fill-opacity="1">8</text><text fill="none" stroke="rgb(255,255,255)" font-family="geogebra-sans-serif, sans-serif" font-size="24px" font-style="normal" font-weight="bold" text-decoration="normal" x="873" y="923" text-anchor="start" dominant-baseline="alphabetic" stroke-opacity="1" stroke-linejoin="bevel" stroke-miterlimit="10" stroke-width="3">9</text><text fill="rgb(0,0,0)" stroke="none" font-family="geogebra-sans-serif, sans-serif" font-size="24px" font-style="normal" font-weight="bold" text-decoration="normal" x="873" y="923" text-anchor="start" dominant-baseline="alphabetic" fill-opacity="1">9</text><text fill="none" stroke="rgb(255,255,255)" font-family="geogebra-sans-serif, sans-serif" font-size="24px" font-style="normal" font-weight="bold" text-decoration="normal" x="949" y="923" text-anchor="start" dominant-baseline="alphabetic" stroke-opacity="1" stroke-linejoin="bevel" stroke-miterlimit="10" stroke-width="3">10</text><text fill="rgb(0,0,0)" stroke="none" font-family="geogebra-sans-serif, sans-serif" font-size="24px" font-style="normal" font-weight="bold" text-decoration="normal" x="949" y="923" text-anchor="start" dominant-baseline="alphabetic" fill-opacity="1">10</text><text fill="none" stroke="rgb(255,255,255)" font-family="geogebra-sans-serif, sans-serif" font-size="24px" font-style="normal" font-weight="bold" text-decoration="normal" x="1032" y="923" text-anchor="start" dominant-baseline="alphabetic" stroke-opacity="1" stroke-linejoin="bevel" stroke-miterlimit="10" stroke-width="3">11</text><text fill="rgb(0,0,0)" stroke="none" font-family="geogebra-sans-serif, sans-serif" font-size="24px" font-style="normal" font-weight="bold" text-decoration="normal" x="1032" y="923" text-anchor="start" dominant-baseline="alphabetic" fill-opacity="1">11</text><text fill="none" stroke="rgb(255,255,255)" font-family="geogebra-sans-serif, sans-serif" font-size="24px" font-style="normal" font-weight="bold" text-decoration="normal" x="1115" y="923" text-anchor="start" dominant-baseline="alphabetic" stroke-opacity="1" stroke-linejoin="bevel" stroke-miterlimit="10" stroke-width="3">12</text><text fill="rgb(0,0,0)" stroke="none" font-family="geogebra-sans-serif, sans-serif" font-size="24px" font-style="normal" font-weight="bold" text-decoration="normal" x="1115" y="923" text-anchor="start" dominant-baseline="alphabetic" fill-opacity="1">12</text><text fill="none" stroke="rgb(255,255,255)" font-family="geogebra-sans-serif, sans-serif" font-size="24px" font-style="normal" font-weight="bold" text-decoration="normal" x="109" y="823" text-anchor="start" dominant-baseline="alphabetic" stroke-opacity="1" stroke-linejoin="bevel" stroke-miterlimit="10" stroke-width="3">5</text><text fill="rgb(0,0,0)" stroke="none" font-family="geogebra-sans-serif, sans-serif" font-size="24px" font-style="normal" font-weight="bold" text-decoration="normal" x="109" y="823" text-anchor="start" dominant-baseline="alphabetic" fill-opacity="1">5</text><text fill="none" stroke="rgb(255,255,255)" font-family="geogebra-sans-serif, sans-serif" font-size="24px" font-style="normal" font-weight="bold" text-decoration="normal" x="96" y="740" text-anchor="start" dominant-baseline="alphabetic" stroke-opacity="1" stroke-linejoin="bevel" stroke-miterlimit="10" stroke-width="3">10</text><text fill="rgb(0,0,0)" stroke="none" font-family="geogebra-sans-serif, sans-serif" font-size="24px" font-style="normal" font-weight="bold" text-decoration="normal" x="96" y="740" text-anchor="start" dominant-baseline="alphabetic" fill-opacity="1">10</text><text fill="none" stroke="rgb(255,255,255)" font-family="geogebra-sans-serif, sans-serif" font-size="24px" font-style="normal" font-weight="bold" text-decoration="normal" x="96" y="657" text-anchor="start" dominant-baseline="alphabetic" stroke-opacity="1" stroke-linejoin="bevel" stroke-miterlimit="10" stroke-width="3">15</text><text fill="rgb(0,0,0)" stroke="none" font-family="geogebra-sans-serif, sans-serif" font-size="24px" font-style="normal" font-weight="bold" text-decoration="normal" x="96" y="657" text-anchor="start" dominant-baseline="alphabetic" fill-opacity="1">15</text><text fill="none" stroke="rgb(255,255,255)" font-family="geogebra-sans-serif, sans-serif" font-size="24px" font-style="normal" font-weight="bold" text-decoration="normal" x="96" y="574" text-anchor="start" dominant-baseline="alphabetic" stroke-opacity="1" stroke-linejoin="bevel" stroke-miterlimit="10" stroke-width="3">20</text><text fill="rgb(0,0,0)" stroke="none" font-family="geogebra-sans-serif, sans-serif" font-size="24px" font-style="normal" font-weight="bold" text-decoration="normal" x="96" y="574" text-anchor="start" dominant-baseline="alphabetic" fill-opacity="1">20</text><text fill="none" stroke="rgb(255,255,255)" font-family="geogebra-sans-serif, sans-serif" font-size="24px" font-style="normal" font-weight="bold" text-decoration="normal" x="96" y="491" text-anchor="start" dominant-baseline="alphabetic" stroke-opacity="1" stroke-linejoin="bevel" stroke-miterlimit="10" stroke-width="3">25</text><text fill="rgb(0,0,0)" stroke="none" font-family="geogebra-sans-serif, sans-serif" font-size="24px" font-style="normal" font-weight="bold" text-decoration="normal" x="96" y="491" text-anchor="start" dominant-baseline="alphabetic" fill-opacity="1">25</text><text fill="none" stroke="rgb(255,255,255)" font-family="geogebra-sans-serif, sans-serif" font-size="24px" font-style="normal" font-weight="bold" text-decoration="normal" x="96" y="408" text-anchor="start" dominant-baseline="alphabetic" stroke-opacity="1" stroke-linejoin="bevel" stroke-miterlimit="10" stroke-width="3">30</text><text fill="rgb(0,0,0)" stroke="none" font-family="geogebra-sans-serif, sans-serif" font-size="24px" font-style="normal" font-weight="bold" text-decoration="normal" x="96" y="408" text-anchor="start" dominant-baseline="alphabetic" fill-opacity="1">30</text><text fill="none" stroke="rgb(255,255,255)" font-family="geogebra-sans-serif, sans-serif" font-size="24px" font-style="normal" font-weight="bold" text-decoration="normal" x="96" y="325" text-anchor="start" dominant-baseline="alphabetic" stroke-opacity="1" stroke-linejoin="bevel" stroke-miterlimit="10" stroke-width="3">35</text><text fill="rgb(0,0,0)" stroke="none" font-family="geogebra-sans-serif, sans-serif" font-size="24px" font-style="normal" font-weight="bold" text-decoration="normal" x="96" y="325" text-anchor="start" dominant-baseline="alphabetic" fill-opacity="1">35</text><text fill="none" stroke="rgb(255,255,255)" font-family="geogebra-sans-serif, sans-serif" font-size="24px" font-style="normal" font-weight="bold" text-decoration="normal" x="96" y="242" text-anchor="start" dominant-baseline="alphabetic" stroke-opacity="1" stroke-linejoin="bevel" stroke-miterlimit="10" stroke-width="3">40</text><text fill="rgb(0,0,0)" stroke="none" font-family="geogebra-sans-serif, sans-serif" font-size="24px" font-style="normal" font-weight="bold" text-decoration="normal" x="96" y="242" text-anchor="start" dominant-baseline="alphabetic" fill-opacity="1">40</text><text fill="none" stroke="rgb(255,255,255)" font-family="geogebra-sans-serif, sans-serif" font-size="24px" font-style="normal" font-weight="bold" text-decoration="normal" x="96" y="159" text-anchor="start" dominant-baseline="alphabetic" stroke-opacity="1" stroke-linejoin="bevel" stroke-miterlimit="10" stroke-width="3">45</text><text fill="rgb(0,0,0)" stroke="none" font-family="geogebra-sans-serif, sans-serif" font-size="24px" font-style="normal" font-weight="bold" text-decoration="normal" x="96" y="159" text-anchor="start" dominant-baseline="alphabetic" fill-opacity="1">45</text><text fill="none" stroke="rgb(255,255,255)" font-family="geogebra-sans-serif, sans-serif" font-size="24px" font-style="normal" font-weight="bold" text-decoration="normal" x="96" y="76" text-anchor="start" dominant-baseline="alphabetic" stroke-opacity="1" stroke-linejoin="bevel" stroke-miterlimit="10" stroke-width="3">50</text><text fill="rgb(0,0,0)" stroke="none" font-family="geogebra-sans-serif, sans-serif" font-size="24px" font-style="normal" font-weight="bold" text-decoration="normal" x="96" y="76" text-anchor="start" dominant-baseline="alphabetic" fill-opacity="1">50</text><text fill="none" stroke="rgb(255,255,255)" font-family="geogebra-sans-serif, sans-serif" font-size="24px" font-style="normal" font-weight="bold" text-decoration="normal" x="109" y="923" text-anchor="start" dominant-baseline="alphabetic" stroke-opacity="1" stroke-linejoin="bevel" stroke-miterlimit="10" stroke-width="3">0</text><text fill="rgb(0,0,0)" stroke="none" font-family="geogebra-sans-serif, sans-serif" font-size="24px" font-style="normal" font-weight="bold" text-decoration="normal" x="109" y="923" text-anchor="start" dominant-baseline="alphabetic" fill-opacity="1">0</text><path fill="none" stroke="rgb(153,51,255)" paint-order="fill stroke markers" d=" M 132.5892985470974 895.9665766861149 L 133.9118367735487 890.6848513453585 L 135.234375 885.4199811135397 M 135.234375 885.4199811135397 L 137.48828125 876.4862829394671 L 139.7421875 867.6015386085564 L 141.99609375 858.765748120808 L 144.25 849.9789114762216 M 144.25 849.9789114762216 L 146.50390625 841.2410286747975 L 148.7578125 832.5520997165353 L 151.01171875 823.9121246014353 L 153.265625 815.3211033294973 L 155.51953125 806.7790359007215 L 157.7734375 798.2859223151079 L 160.02734375 789.8417625726563 L 162.28125 781.4465566733668 L 164.53515625 773.1003046172394 L 166.7890625 764.8030064042742 L 169.04296875 756.5546620344711 L 171.296875 748.3552715078301 L 173.55078125 740.2048348243511 L 175.80468750000003 732.1033519840344 L 178.05859375 724.0508229868797 L 180.3125 716.0472478328871 L 182.56640625 708.0926265220567 L 184.8203125 700.1869590543884 L 187.07421875 692.3302454298821 L 189.328125 684.5224856485379 L 191.58203125 676.763679710356 L 193.8359375 669.0538276153361 L 196.08984375 661.3929293634783 L 198.34375 653.7809849547825 L 200.59765625 646.217994389249 L 202.8515625 638.7039576668776 L 205.10546875 631.2388747876682 L 207.359375 623.8227457516209 L 209.61328125 616.4555705587359 L 211.8671875 609.1373492090129 L 214.12109375 601.8680817024518 L 216.375 594.6477680390531 L 218.62890625 587.4764082188165 L 220.8828125 580.3540022417419 L 223.13671875 573.2805501078294 L 225.390625 566.2560518170792 L 227.64453125000003 559.2805073694908 L 229.8984375 552.3539167650647 L 232.15234375 545.4762800038006 L 234.40625 538.6475970856989 L 236.66015625 531.8678680107589 L 238.91406250000003 525.1370927789812 L 241.16796875 518.4552713903657 L 243.42187500000003 511.82240384491223 L 245.67578125 505.238490142621 L 247.9296875 498.70353028349166 L 250.18359375 492.21752426752465 L 252.4375 485.7804720947196 L 254.69140625000003 479.3923737650766 L 256.9453125 473.05322927859595 L 259.19921875 466.7630386352772 L 261.453125 460.5218018351207 L 263.70703125 454.3295188781262 L 265.9609375 448.18618976429383 L 268.21484375 442.09181449362364 L 270.46875 436.04639306611546 L 272.72265625 430.0499254817695 L 274.9765625 424.10241174058564 L 277.23046875 418.20385184256384 L 279.484375 412.3542457877041 L 281.73828125 406.55359357600656 L 283.9921875 400.8018952074711 L 286.24609375 395.0991506820977 L 288.5 389.4453599998865 M 288.5 389.4453599998865 L 290.75390625 383.8405231608374 L 293.0078125 378.28464016495036 L 295.26171875 372.7777110122255 L 297.515625 367.3197357026627 L 299.76953125 361.91071423626204 L 302.0234375 356.55064661302345 L 304.27734375 351.2395328329469 L 306.53125 345.97737289603253 L 308.78515625 340.76416680228044 L 311.0390625 335.5999145516903 L 313.29296875 330.4846161442622 L 315.546875 325.4182715799965 L 320.0546875 315.4324439809509 L 324.5625 305.64243175455385 L 329.0703125 296.04823490080537 L 333.578125 286.6498534197053 L 338.0859375 277.4472873112537 L 342.59375 268.4405365754503 L 347.1015625 259.6296012122956 L 351.609375 251.0144812217892 L 356.1171875 242.59517660393124 L 360.625 234.37168735872183 L 365.1328125 226.34401348616086 L 369.640625 218.51215498624833 L 374.1484375 210.87611185898413 L 378.65625 203.43588410436848 L 383.1640625 196.19147172240116 L 387.671875 189.1428747130824 L 392.1796875 182.29009307641218 L 396.68750000000006 175.63312681239006 L 401.1953125 169.17197592101684 L 405.70312500000006 162.90664040229183 L 410.2109375 156.83712025621537 L 414.71875 150.96341548278713 L 419.2265625 145.28552608200755 L 423.734375 139.8034520538764 L 428.24218750000006 134.5171933983936 L 432.75 129.426750115559 L 437.2578125 124.5321222053733 L 441.765625 119.83330966783569 L 446.2734375 115.33031250294675 L 450.78125 111.02313071070625 L 455.2890625 106.9117642911142 L 459.79687500000006 102.99621324417035 L 464.3046875 99.27647756987528 L 468.8125 95.75255726822843 L 473.3203125 92.42445233923002 L 477.828125 89.29216278288038 L 482.33593750000006 86.35568859917885 L 486.84375 83.61502978812564 L 491.3515625 81.07018634972133 L 495.859375 78.72115828396511 L 500.3671875 76.56794559085745 L 504.87500000000006 74.61054827039845 L 509.3828125 72.84896632258744 L 513.890625 71.2831997474251 L 518.3984375 69.91324854491143 L 522.90625 68.73911271504585 L 527.4140625 67.76079225782905 L 531.921875 66.97828717326047 L 536.4296875 66.39159746134033 L 540.9375 66.00072312206873 L 545.4453125 65.80566415544547 L 549.953125 65.80642056147076 L 554.4609375 66.00299234014437 L 558.96875 66.39537949146643 L 563.4765625 66.98358201543715 L 567.984375 67.76759991205608 L 572.4921875 68.74743318132346 L 577 69.92308182323961 M 577 69.92308182323961 L 581.5078125 71.29454583780387 L 586.015625 72.86182522501656 L 590.5234375 74.62491998487803 L 595.03125 76.58383011738749 L 599.5390625 78.73855562254562 L 604.046875 81.0890965003523 L 608.5546875 83.6354527508073 L 613.0625 86.37762437391063 L 617.5703125 89.31561136966275 L 622.078125 92.44941373806296 L 626.5859375 95.77903147911172 L 631.09375 99.30446459280915 L 635.6015625 103.0257130791548 L 640.109375 106.94277693814877 L 644.6171875 111.05565616979163 L 649.1250000000001 115.36435077408248 L 653.6328125 119.868860751022 L 658.1406250000001 124.56918610060995 L 662.6484375 129.46532682284612 L 667.15625 134.55728291773107 L 671.6640625 139.84505438526423 L 676.171875 145.32864122544606 L 680.6796875000001 151.00804343827622 L 685.1875 156.8832610237547 L 689.6953125000001 162.95429398188173 L 694.2031250000001 169.22114231265732 L 698.7109375 175.68380601608123 L 703.21875 182.3422850921537 L 707.7265625 189.1965795408746 L 712.2343750000001 196.24668936224373 L 716.7421875 203.4926145562614 L 721.25 210.93435512292774 L 725.7578125000001 218.5719110622423 L 730.265625 226.40528237420529 L 734.7734375000001 234.43446905881672 L 739.2812500000001 242.65947111607682 L 743.7890625000001 251.08028854598524 L 748.296875 259.6969213485414 L 752.8046875 268.5093695237472 L 757.3125000000001 277.51763307160104 L 761.8203125 286.72171199210277 L 766.3281250000001 296.12160628525373 L 770.8359375000001 305.7173159510528 L 775.3437500000001 315.50884098949996 L 779.8515625 325.4961814005959 L 782.1054687500001 330.5632823708869 L 784.3593750000001 335.6793371843406 L 786.61328125 340.8443458409556 L 788.8671875000001 346.058308340733 L 791.12109375 351.32122468367265 L 793.375 356.6330948697745 L 795.6289062500001 361.99391889903814 L 797.8828125 367.4036967714642 L 800.13671875 372.8624284870523 L 802.3906250000001 378.3701140458021 L 804.64453125 383.9267534477143 L 806.8984375 389.5323466927887 L 809.1523437500001 395.1868937810256 L 811.40625 400.89039471242415 L 813.6601562500001 406.64284948698474 L 815.9140625000001 412.44425810470744 L 818.16796875 418.2946205655922 L 820.4218750000001 424.1939368696395 L 822.6757812500001 430.14220701684843 L 824.9296875 436.13943100721997 L 827.1835937500001 442.18560884075305 L 829.4375000000001 448.2807405174487 L 831.69140625 454.42482603730645 L 833.9453125000001 460.6178654003258 L 836.1992187500001 466.85985860650766 L 838.453125 473.1508056558517 L 840.7070312500001 479.4907065483577 L 842.9609375000001 485.87956128402584 L 845.2148437500001 492.3173698628561 L 847.4687500000001 498.8041322848484 L 849.7226562500001 505.33984855000324 L 851.9765625000001 511.92451865831976 L 854.2304687500001 518.5581426097983 L 856.4843750000002 525.2407204044393 L 858.7382812500001 531.9722520422422 L 860.9921875000001 538.7527375232069 L 863.24609375 545.5821768473343 L 865.5000000000001 552.4605700146237 M 865.5000000000001 552.4605700146237 L 867.7539062500001 559.3879170250748 L 870.0078125 566.3642178786884 L 872.2617187500001 573.3894725754641 L 874.515625 580.4636811154019 L 876.76953125 587.5868434985016 L 879.0234375000001 594.7589597247636 L 881.27734375 601.9800297941877 L 883.5312500000001 609.2500537067738 L 885.7851562500001 616.5690314625219 L 888.0390625 623.9369630614322 L 890.2929687500001 631.3538485035044 L 892.5468750000001 638.8196877887394 L 894.80078125 646.3344809171359 L 897.0546875000001 653.8982278886949 L 899.30859375 661.5109287034152 L 901.5625 669.1725833612988 L 903.8164062500001 676.8831918623441 L 906.0703125 684.6427542065505 L 908.32421875 692.4512703939206 L 910.578125 700.3087404244516 L 912.83203125 708.2151642981453 L 915.0859375000001 716.1705420150015 L 917.33984375 724.1748735750188 L 919.59375 732.2281589781986 L 921.8476562500001 740.3303982245411 L 924.1015625 748.4815913140446 L 926.35546875 756.6817382467112 L 928.6093750000001 764.9308390225399 L 930.86328125 773.2288936415298 L 933.1171875 781.5759021036826 L 935.3710937499999 789.971864408997 L 937.625 798.4167805574741 M 937.625 798.4167805574741 L 939.87890625 806.9106505491131 L 942.1328125 815.4534743839139 L 944.38671875 824.0452520618771 L 946.6406249999999 832.685983583002 L 948.89453125 841.3756689472899 L 951.1484375 850.1143081547393 L 953.4023437499999 858.9019012053504 L 955.65625 867.7384480991246 M 955.65625 867.7384480991246 L 957.91015625 876.6239488360603 L 960.1640624999999 885.5584034161577 M 960.1640624999999 885.5584034161577 L 961.4691877088237 890.7542829561976 L 962.7743129176476 895.9665766861141" stroke-opacity="0.6980392156862745" stroke-linecap="round" stroke-linejoin="round" stroke-miterlimit="10" stroke-width="2.5"/><path fill="none" stroke="rgb(0,100,0)" paint-order="fill stroke markers" d=" M 132.5892985470974 895.9665766861149 L 133.9118367735487 890.6848513453585 L 135.234375 885.4199811135397 M 135.234375 885.4199811135397 L 137.48828125 876.4862829394671 L 139.7421875 867.6015386085564 L 141.99609375 858.765748120808 L 144.25 849.9789114762216 M 144.25 849.9789114762216 L 146.50390625 841.2410286747975 L 148.7578125 832.5520997165353 L 151.01171875 823.9121246014353 L 153.265625 815.3211033294973 L 155.51953125 806.7790359007215 L 157.7734375 798.2859223151079 L 160.02734375 789.8417625726563 L 162.28125 781.4465566733668 L 164.53515625 773.1003046172394 L 166.7890625 764.8030064042742 L 169.04296875 756.5546620344711 L 171.296875 748.3552715078301 L 173.55078125 740.2048348243511 L 175.80468750000003 732.1033519840344 L 178.05859375 724.0508229868797 L 180.3125 716.0472478328871 L 182.56640625 708.0926265220567 L 184.8203125 700.1869590543884 L 187.07421875 692.3302454298821 L 189.328125 684.5224856485379 L 191.58203125 676.763679710356 L 193.8359375 669.0538276153361 L 196.08984375 661.3929293634783 L 198.34375 653.7809849547825 L 200.59765625 646.217994389249 L 202.8515625 638.7039576668776 L 205.10546875 631.2388747876682 L 207.359375 623.8227457516209 L 209.61328125 616.4555705587359 L 211.8671875 609.1373492090129 L 214.12109375 601.8680817024518 L 216.375 594.6477680390531 L 218.62890625 587.4764082188165 L 220.8828125 580.3540022417419 L 223.13671875 573.2805501078294 L 225.390625 566.2560518170792 L 227.64453125000003 559.2805073694908 L 229.8984375 552.3539167650647 L 232.15234375 545.4762800038006 L 234.40625 538.6475970856989 L 236.66015625 531.8678680107589 L 238.91406250000003 525.1370927789812 L 241.16796875 518.4552713903657 L 243.42187500000003 511.82240384491223 L 245.67578125 505.238490142621 L 247.9296875 498.70353028349166 L 250.18359375 492.21752426752465 L 252.4375 485.7804720947196 L 254.69140625000003 479.3923737650766 L 256.9453125 473.05322927859595 L 259.19921875 466.7630386352772 L 261.453125 460.5218018351207 L 263.70703125 454.3295188781262 L 265.9609375 448.18618976429383 L 268.21484375 442.09181449362364 L 270.46875 436.04639306611546 L 272.72265625 430.0499254817695 L 274.9765625 424.10241174058564 L 277.23046875 418.20385184256384 L 279.484375 412.3542457877041 L 281.73828125 406.55359357600656 L 283.9921875 400.8018952074711 L 286.24609375 395.0991506820977 L 288.5 389.4453599998865 M 288.5 389.4453599998865 L 290.75390625 383.8405231608374 L 293.0078125 378.28464016495036 L 295.26171875 372.7777110122255 L 297.515625 367.3197357026627 L 299.76953125 361.91071423626204 L 302.0234375 356.55064661302345 L 304.27734375 351.2395328329469 L 306.53125 345.97737289603253 L 308.78515625 340.76416680228044 L 311.0390625 335.5999145516903 L 313.29296875 330.4846161442622 L 315.546875 325.4182715799965 L 320.0546875 315.4324439809509 L 324.5625 305.64243175455385 L 329.0703125 296.04823490080537 L 333.578125 286.6498534197053 L 338.0859375 277.4472873112537 L 342.59375 268.4405365754503 L 347.1015625 259.6296012122956 L 351.609375 251.0144812217892 L 356.1171875 242.59517660393124 L 360.625 234.37168735872183 L 365.1328125 226.34401348616086 L 369.640625 218.51215498624833 L 374.1484375 210.87611185898413 L 378.65625 203.43588410436848 L 383.1640625 196.19147172240116 L 387.671875 189.1428747130824 L 392.1796875 182.29009307641218 L 396.68750000000006 175.63312681239006 L 401.1953125 169.17197592101684 L 405.70312500000006 162.90664040229183 L 410.2109375 156.83712025621537 L 414.71875 150.96341548278713 L 419.2265625 145.28552608200755 L 423.734375 139.8034520538764 L 428.24218750000006 134.5171933983936 L 432.75 129.426750115559 L 437.2578125 124.5321222053733 L 441.765625 119.83330966783569 L 446.2734375 115.33031250294675 L 450.78125 111.02313071070625 L 455.2890625 106.9117642911142 L 459.79687500000006 102.99621324417035 L 464.3046875 99.27647756987528 L 468.8125 95.75255726822843 L 473.3203125 92.42445233923002 L 477.828125 89.29216278288038 L 482.33593750000006 86.35568859917885 L 486.84375 83.61502978812564 L 491.3515625 81.07018634972133 L 495.859375 78.72115828396511 L 500.3671875 76.56794559085745 L 504.87500000000006 74.61054827039845 L 509.3828125 72.84896632258744 L 513.890625 71.2831997474251 L 518.3984375 69.91324854491143 L 522.90625 68.73911271504585 L 527.4140625 67.76079225782905 L 531.921875 66.97828717326047 L 536.4296875 66.39159746134033 L 540.9375 66.00072312206873 L 545.4453125 65.80566415544547 L 549.953125 65.80642056147076 L 554.4609375 66.00299234014437 L 558.96875 66.39537949146643 L 563.4765625 66.98358201543715 L 567.984375 67.76759991205608 L 572.4921875 68.74743318132346 L 577 69.92308182323961 M 577 69.92308182323961 L 581.5078125 71.29454583780387 L 586.015625 72.86182522501656 L 590.5234375 74.62491998487803 L 595.03125 76.58383011738749 L 599.5390625 78.73855562254562 L 604.046875 81.0890965003523 L 608.5546875 83.6354527508073 L 613.0625 86.37762437391063 L 617.5703125 89.31561136966275 L 622.078125 92.44941373806296 L 626.5859375 95.77903147911172 L 631.09375 99.30446459280915 L 635.6015625 103.0257130791548 L 640.109375 106.94277693814877 L 644.6171875 111.05565616979163 L 649.1250000000001 115.36435077408248 L 653.6328125 119.868860751022 L 658.1406250000001 124.56918610060995 L 662.6484375 129.46532682284612 L 667.15625 134.55728291773107 L 671.6640625 139.84505438526423 L 676.171875 145.32864122544606 L 680.6796875000001 151.00804343827622 L 685.1875 156.8832610237547 L 689.6953125000001 162.95429398188173 L 694.2031250000001 169.22114231265732 L 698.7109375 175.68380601608123 L 703.21875 182.3422850921537 L 707.7265625 189.1965795408746 L 712.2343750000001 196.24668936224373 L 716.7421875 203.4926145562614 L 721.25 210.93435512292774 L 725.7578125000001 218.5719110622423 L 730.265625 226.40528237420529 L 734.7734375000001 234.43446905881672 L 739.2812500000001 242.65947111607682 L 743.7890625000001 251.08028854598524 L 748.296875 259.6969213485414 L 752.8046875 268.5093695237472 L 757.3125000000001 277.51763307160104 L 761.8203125 286.72171199210277 L 766.3281250000001 296.12160628525373 L 770.8359375000001 305.7173159510528 L 775.3437500000001 315.50884098949996 L 779.8515625 325.4961814005959 L 782.1054687500001 330.5632823708869 L 784.3593750000001 335.6793371843406 L 786.61328125 340.8443458409556 L 788.8671875000001 346.058308340733 L 791.12109375 351.32122468367265 L 793.375 356.6330948697745 L 795.6289062500001 361.99391889903814 L 797.8828125 367.4036967714642 L 800.13671875 372.8624284870523 L 802.3906250000001 378.3701140458021 L 804.64453125 383.9267534477143 L 806.8984375 389.5323466927887 L 809.1523437500001 395.1868937810256 L 811.40625 400.89039471242415 L 813.6601562500001 406.64284948698474 L 815.9140625000001 412.44425810470744 L 818.16796875 418.2946205655922 L 820.4218750000001 424.1939368696395 L 822.6757812500001 430.14220701684843 L 824.9296875 436.13943100721997 L 827.1835937500001 442.18560884075305 L 829.4375000000001 448.2807405174487 L 831.69140625 454.42482603730645 L 833.9453125000001 460.6178654003258 L 836.1992187500001 466.85985860650766 L 838.453125 473.1508056558517 L 840.7070312500001 479.4907065483577 L 842.9609375000001 485.87956128402584 L 845.2148437500001 492.3173698628561 L 847.4687500000001 498.8041322848484 L 849.7226562500001 505.33984855000324 L 851.9765625000001 511.92451865831976 L 854.2304687500001 518.5581426097983 L 856.4843750000002 525.2407204044393 L 858.7382812500001 531.9722520422422 L 860.9921875000001 538.7527375232069 L 863.24609375 545.5821768473343 L 865.5000000000001 552.4605700146237 M 865.5000000000001 552.4605700146237 L 867.7539062500001 559.3879170250748 L 870.0078125 566.3642178786884 L 872.2617187500001 573.3894725754641 L 874.515625 580.4636811154019 L 876.76953125 587.5868434985016 L 879.0234375000001 594.7589597247636 L 881.27734375 601.9800297941877 L 883.5312500000001 609.2500537067738 L 885.7851562500001 616.5690314625219 L 888.0390625 623.9369630614322 L 890.2929687500001 631.3538485035044 L 892.5468750000001 638.8196877887394 L 894.80078125 646.3344809171359 L 897.0546875000001 653.8982278886949 L 899.30859375 661.5109287034152 L 901.5625 669.1725833612988 L 903.8164062500001 676.8831918623441 L 906.0703125 684.6427542065505 L 908.32421875 692.4512703939206 L 910.578125 700.3087404244516 L 912.83203125 708.2151642981453 L 915.0859375000001 716.1705420150015 L 917.33984375 724.1748735750188 L 919.59375 732.2281589781986 L 921.8476562500001 740.3303982245411 L 924.1015625 748.4815913140446 L 926.35546875 756.6817382467112 L 928.6093750000001 764.9308390225399 L 930.86328125 773.2288936415298 L 933.1171875 781.5759021036826 L 935.3710937499999 789.971864408997 L 937.625 798.4167805574741 M 937.625 798.4167805574741 L 939.87890625 806.9106505491131 L 942.1328125 815.4534743839139 L 944.38671875 824.0452520618771 L 946.6406249999999 832.685983583002 L 948.89453125 841.3756689472899 L 951.1484375 850.1143081547393 L 953.4023437499999 858.9019012053504 L 955.65625 867.7384480991246 M 955.65625 867.7384480991246 L 957.91015625 876.6239488360603 L 960.1640624999999 885.5584034161577 M 960.1640624999999 885.5584034161577 L 961.4691877088237 890.7542829561976 L 962.7743129176476 895.9665766861141" stroke-opacity="0.6980392156862745" stroke-linecap="round" stroke-linejoin="round" stroke-miterlimit="10" stroke-width="5"/><text fill="none" stroke="rgb(255,255,255)" font-family="geogebra-sans-serif, sans-serif" font-size="32px" font-style="normal" font-weight="normal" text-decoration="normal" x="165" y="863" text-anchor="start" dominant-baseline="alphabetic" stroke-opacity="1" stroke-linecap="round" stroke-linejoin="bevel" stroke-miterlimit="10" stroke-width="3">S</text><text fill="rgb(0,100,0)" stroke="none" font-family="geogebra-sans-serif, sans-serif" font-size="32px" font-style="normal" font-weight="normal" text-decoration="normal" x="165" y="863" text-anchor="start" dominant-baseline="alphabetic" fill-opacity="1">S</text></g></g></svg>