<?xml version="1.0" encoding="UTF-8" standalone="no"?>
<!-- Created with Inkscape (http://www.inkscape.org/) -->

<svg
   xmlns:dc="http://purl.org/dc/elements/1.1/"
   xmlns:cc="http://creativecommons.org/ns#"
   xmlns:rdf="http://www.w3.org/1999/02/22-rdf-syntax-ns#"
   xmlns:svg="http://www.w3.org/2000/svg"
   xmlns="http://www.w3.org/2000/svg"
   xmlns:xlink="http://www.w3.org/1999/xlink"
   xmlns:sodipodi="http://sodipodi.sourceforge.net/DTD/sodipodi-0.dtd"
   xmlns:inkscape="http://www.inkscape.org/namespaces/inkscape"
   width="278.44278mm"
   height="138.74501mm"
   viewBox="0 0 278.44278 138.74501"
   version="1.1"
   id="svg8"
   inkscape:version="0.92.2 2405546, 2018-03-11"
   sodipodi:docname="dessin.svg">
  <defs
     id="defs2">
    <marker
       inkscape:stockid="Arrow1Mend"
       orient="auto"
       refY="0"
       refX="0"
       id="Arrow1Mend"
       style="overflow:visible"
       inkscape:isstock="true">
      <path
         id="path2564"
         d="M 0,0 5,-5 -12.5,0 5,5 Z"
         style="fill:#000000;fill-opacity:1;fill-rule:evenodd;stroke:#000000;stroke-width:1.00000003pt;stroke-opacity:1"
         transform="matrix(-0.4,0,0,-0.4,-4,0)"
         inkscape:connector-curvature="0" />
    </marker>
    <marker
       inkscape:stockid="Arrow1Lend"
       orient="auto"
       refY="0"
       refX="0"
       id="Arrow1Lend"
       style="overflow:visible"
       inkscape:isstock="true">
      <path
         id="path2558"
         d="M 0,0 5,-5 -12.5,0 5,5 Z"
         style="fill:#000000;fill-opacity:1;fill-rule:evenodd;stroke:#000000;stroke-width:1.00000003pt;stroke-opacity:1"
         transform="matrix(-0.8,0,0,-0.8,-10,0)"
         inkscape:connector-curvature="0" />
    </marker>
    <marker
       inkscape:stockid="Arrow1Mend"
       orient="auto"
       refY="0"
       refX="0"
       id="Arrow1Mend-3"
       style="overflow:visible"
       inkscape:isstock="true">
      <path
         inkscape:connector-curvature="0"
         id="path2564-6"
         d="M 0,0 5,-5 -12.5,0 5,5 Z"
         style="fill:#000000;fill-opacity:1;fill-rule:evenodd;stroke:#000000;stroke-width:1.00000003pt;stroke-opacity:1"
         transform="matrix(-0.4,0,0,-0.4,-4,0)" />
    </marker>
  </defs>
  <sodipodi:namedview
     id="base"
     pagecolor="#ffffff"
     bordercolor="#666666"
     borderopacity="1.0"
     inkscape:pageopacity="0.0"
     inkscape:pageshadow="2"
     inkscape:zoom="0.96447853"
     inkscape:cx="526.19108"
     inkscape:cy="262.1953"
     inkscape:document-units="mm"
     inkscape:current-layer="layer1"
     showgrid="false"
     fit-margin-top="0"
     fit-margin-left="0"
     fit-margin-right="0"
     fit-margin-bottom="0"
     inkscape:window-width="1920"
     inkscape:window-height="1015"
     inkscape:window-x="0"
     inkscape:window-y="0"
     inkscape:window-maximized="1" />
  <metadata
     id="metadata5">
    <rdf:RDF>
      <cc:Work
         rdf:about="">
        <dc:format>image/svg+xml</dc:format>
        <dc:type
           rdf:resource="http://purl.org/dc/dcmitype/StillImage" />
        <dc:title></dc:title>
      </cc:Work>
    </rdf:RDF>
  </metadata>
  <g
     inkscape:label="Calque 1"
     inkscape:groupmode="layer"
     id="layer1"
     transform="translate(-43.95167,-83.116507)">
    <circle
       cy="88.578438"
       cx="105.23144"
       id="circle819"
       style="color:#000000;display:inline;overflow:visible;visibility:visible;opacity:1;fill:#040000;fill-opacity:1;fill-rule:nonzero;stroke:#000000;stroke-width:0.81816173;stroke-linecap:round;stroke-miterlimit:4;stroke-dasharray:none;stroke-dashoffset:0;stroke-opacity:1;marker:none;enable-background:accumulate"
       r="1.5909191"
       inkscape:tile-cx="69.602255"
       inkscape:tile-cy="76.549452"
       inkscape:tile-w="3.9999999"
       inkscape:tile-h="3.9999999"
       inkscape:tile-x0="67.602255"
       inkscape:tile-y0="74.549452" />
    <use
       x="0"
       y="0"
       inkscape:tiled-clone-of="#circle819"
       xlink:href="#circle819"
       transform="translate(-15.536282,72.307583)"
       id="use2261"
       width="100%"
       height="100%" />
    <use
       x="0"
       y="0"
       inkscape:tiled-clone-of="#circle819"
       xlink:href="#circle819"
       transform="rotate(30,-29.21718,23.509847)"
       id="use2263"
       width="100%"
       height="100%" />
    <use
       x="0"
       y="0"
       inkscape:tiled-clone-of="#circle819"
       xlink:href="#circle819"
       transform="rotate(90,93.188847,101.15042)"
       id="use2267"
       width="100%"
       height="100%" />
    <use
       x="0"
       y="0"
       inkscape:tiled-clone-of="#circle819"
       xlink:href="#circle819"
       transform="rotate(150,63.899033,130.40124)"
       id="use2271"
       width="100%"
       height="100%" />
    <use
       x="0"
       y="0"
       inkscape:tiled-clone-of="#circle819"
       xlink:href="#circle819"
       transform="rotate(-150,82.811832,114.78318)"
       id="use2275"
       width="100%"
       height="100%" />
    <use
       x="0"
       y="0"
       inkscape:tiled-clone-of="#circle819"
       xlink:href="#circle819"
       transform="rotate(-120,161.45635,135.07236)"
       id="use2277"
       width="100%"
       height="100%" />
    <use
       x="0"
       y="0"
       inkscape:tiled-clone-of="#circle819"
       xlink:href="#circle819"
       transform="rotate(-90,135.07983,79.343565)"
       id="use2279"
       width="100%"
       height="100%" />
    <use
       x="0"
       y="0"
       inkscape:tiled-clone-of="#circle819"
       xlink:href="#circle819"
       transform="rotate(60,-13.082398,102.54364)"
       id="use2289"
       width="100%"
       height="100%" />
    <use
       x="0"
       y="0"
       inkscape:tiled-clone-of="#circle819"
       xlink:href="#circle819"
       transform="rotate(90,35.466055,113.4162)"
       id="use2291"
       width="100%"
       height="100%" />
    <use
       x="0"
       y="0"
       inkscape:tiled-clone-of="#circle819"
       xlink:href="#circle819"
       transform="rotate(120,60.401463,118.43197)"
       id="use2293"
       width="100%"
       height="100%" />
    <use
       x="0"
       y="0"
       inkscape:tiled-clone-of="#circle819"
       xlink:href="#circle819"
       transform="rotate(150,101.40313,122.2742)"
       id="use2295"
       width="100%"
       height="100%" />
    <use
       x="0"
       y="0"
       inkscape:tiled-clone-of="#circle819"
       xlink:href="#circle819"
       transform="rotate(180,128.91701,128.03148)"
       id="use2297"
       width="100%"
       height="100%" />
    <use
       x="0"
       y="0"
       inkscape:tiled-clone-of="#circle819"
       xlink:href="#circle819"
       transform="rotate(-90,121.75489,109.43776)"
       id="use2303"
       width="100%"
       height="100%" />
    <use
       x="0"
       y="0"
       inkscape:tiled-clone-of="#circle819"
       xlink:href="#circle819"
       transform="rotate(30,52.858868,4.3551328)"
       id="use2311"
       width="100%"
       height="100%" />
    <use
       x="0"
       y="0"
       inkscape:tiled-clone-of="#circle819"
       xlink:href="#circle819"
       transform="rotate(60,2.6414253,156.37504)"
       id="use2313"
       width="100%"
       height="100%" />
    <use
       x="0"
       y="0"
       inkscape:tiled-clone-of="#circle819"
       xlink:href="#circle819"
       transform="rotate(180,123.03722,141.92352)"
       id="use2321"
       width="100%"
       height="100%" />
    <use
       x="0"
       y="0"
       inkscape:tiled-clone-of="#circle819"
       xlink:href="#circle819"
       transform="rotate(-120,147.70992,135.7141)"
       id="use2325"
       width="100%"
       height="100%" />
    <use
       x="0"
       y="0"
       inkscape:tiled-clone-of="#circle819"
       xlink:href="#circle819"
       transform="rotate(-90,138.22334,87.485737)"
       id="use2327"
       width="100%"
       height="100%" />
    <use
       x="0"
       y="0"
       inkscape:tiled-clone-of="#circle819"
       xlink:href="#circle819"
       transform="rotate(-30,201.97722,17.020725)"
       id="use2331"
       width="100%"
       height="100%" />
    <use
       x="0"
       y="0"
       inkscape:tiled-clone-of="#circle819"
       xlink:href="#circle819"
       transform="translate(-58.893788,112.59589)"
       id="use2333"
       width="100%"
       height="100%" />
    <use
       x="0"
       y="0"
       inkscape:tiled-clone-of="#circle819"
       xlink:href="#circle819"
       transform="rotate(30,-2.6705677,182.00958)"
       id="use2335"
       width="100%"
       height="100%" />
    <use
       x="0"
       y="0"
       inkscape:tiled-clone-of="#circle819"
       xlink:href="#circle819"
       transform="rotate(60,86.436756,155.69439)"
       id="use2337"
       width="100%"
       height="100%" />
    <use
       x="0"
       y="0"
       inkscape:tiled-clone-of="#circle819"
       xlink:href="#circle819"
       transform="rotate(90,40.195011,148.01821)"
       id="use2339"
       width="100%"
       height="100%" />
    <use
       x="0"
       y="0"
       inkscape:tiled-clone-of="#circle819"
       xlink:href="#circle819"
       transform="rotate(120,121.06753,116.21063)"
       id="use2341"
       width="100%"
       height="100%" />
    <use
       x="0"
       y="0"
       inkscape:tiled-clone-of="#circle819"
       xlink:href="#circle819"
       transform="rotate(150,105.36655,115.49166)"
       id="use2343"
       width="100%"
       height="100%" />
    <use
       x="0"
       y="0"
       inkscape:tiled-clone-of="#circle819"
       xlink:href="#circle819"
       transform="rotate(180,112.01574,100.0671)"
       id="use2345"
       width="100%"
       height="100%" />
    <use
       x="0"
       y="0"
       inkscape:tiled-clone-of="#circle819"
       xlink:href="#circle819"
       transform="rotate(-150,103.65227,120.30843)"
       id="use2347"
       width="100%"
       height="100%" />
    <use
       x="0"
       y="0"
       inkscape:tiled-clone-of="#circle819"
       xlink:href="#circle819"
       transform="rotate(-120,105.5522,122.0097)"
       id="use2349"
       width="100%"
       height="100%" />
    <use
       x="0"
       y="0"
       inkscape:tiled-clone-of="#circle819"
       xlink:href="#circle819"
       transform="rotate(-60,186.04356,143.75362)"
       id="use2353"
       width="100%"
       height="100%" />
    <use
       x="0"
       y="0"
       inkscape:tiled-clone-of="#circle819"
       xlink:href="#circle819"
       transform="rotate(30,-59.525996,167.92666)"
       id="use2359"
       width="100%"
       height="100%" />
    <use
       x="0"
       y="0"
       inkscape:tiled-clone-of="#circle819"
       xlink:href="#circle819"
       transform="rotate(60,4.3723593,81.409842)"
       id="use2361"
       width="100%"
       height="100%" />
    <use
       x="0"
       y="0"
       inkscape:tiled-clone-of="#circle819"
       xlink:href="#circle819"
       transform="rotate(90,50.070952,143.25149)"
       id="use2363"
       width="100%"
       height="100%" />
    <use
       x="0"
       y="0"
       inkscape:tiled-clone-of="#circle819"
       xlink:href="#circle819"
       transform="rotate(150,121.56442,97.637508)"
       id="use2367"
       width="100%"
       height="100%" />
    <use
       x="0"
       y="0"
       inkscape:tiled-clone-of="#circle819"
       xlink:href="#circle819"
       transform="rotate(180,118.78839,98.994742)"
       id="use2369"
       width="100%"
       height="100%" />
    <use
       x="0"
       y="0"
       inkscape:tiled-clone-of="#circle819"
       xlink:href="#circle819"
       transform="rotate(-150,105.69789,158.49402)"
       id="use2371"
       width="100%"
       height="100%" />
    <use
       x="0"
       y="0"
       inkscape:tiled-clone-of="#circle819"
       xlink:href="#circle819"
       transform="rotate(-60,124.73977,75.668717)"
       id="use2377"
       width="100%"
       height="100%" />
    <use
       x="0"
       y="0"
       inkscape:tiled-clone-of="#circle819"
       xlink:href="#circle819"
       transform="rotate(-30,293.11886,80.354309)"
       id="use2379"
       width="100%"
       height="100%" />
    <use
       x="0"
       y="0"
       inkscape:tiled-clone-of="#circle819"
       xlink:href="#circle819"
       transform="translate(-17.209012,87.196935)"
       id="use2381"
       width="100%"
       height="100%" />
    <use
       x="0"
       y="0"
       inkscape:tiled-clone-of="#circle819"
       xlink:href="#circle819"
       transform="rotate(30,74.791781,82.49161)"
       id="use2383"
       width="100%"
       height="100%" />
    <use
       x="0"
       y="0"
       inkscape:tiled-clone-of="#circle819"
       xlink:href="#circle819"
       transform="rotate(60,70.516814,67.231132)"
       id="use2385"
       width="100%"
       height="100%" />
    <use
       x="0"
       y="0"
       inkscape:tiled-clone-of="#circle819"
       xlink:href="#circle819"
       transform="rotate(180,123.45473,153.72312)"
       id="use2393"
       width="100%"
       height="100%" />
    <use
       x="0"
       y="0"
       inkscape:tiled-clone-of="#circle819"
       xlink:href="#circle819"
       transform="rotate(-120,98.203706,95.169271)"
       id="use2397"
       width="100%"
       height="100%" />
    <use
       x="0"
       y="0"
       inkscape:tiled-clone-of="#circle819"
       xlink:href="#circle819"
       transform="rotate(-60,221.96588,131.90088)"
       id="use2401"
       width="100%"
       height="100%" />
    <use
       x="0"
       y="0"
       inkscape:tiled-clone-of="#circle819"
       xlink:href="#circle819"
       transform="rotate(-30,315.07193,122.16296)"
       id="use2403"
       width="100%"
       height="100%" />
    <use
       x="0"
       y="0"
       inkscape:tiled-clone-of="#circle819"
       xlink:href="#circle819"
       transform="translate(-57.602338,49.337461)"
       id="use2405"
       width="100%"
       height="100%" />
    <use
       x="0"
       y="0"
       inkscape:tiled-clone-of="#circle819"
       xlink:href="#circle819"
       transform="rotate(30,121.75757,178.7358)"
       id="use2407"
       width="100%"
       height="100%" />
    <use
       x="0"
       y="0"
       inkscape:tiled-clone-of="#circle819"
       xlink:href="#circle819"
       transform="rotate(120,78.978178,128.94086)"
       id="use2413"
       width="100%"
       height="100%" />
    <use
       x="0"
       y="0"
       inkscape:tiled-clone-of="#circle819"
       xlink:href="#circle819"
       transform="rotate(150,115.05195,148.1873)"
       id="use2415"
       width="100%"
       height="100%" />
    <use
       x="0"
       y="0"
       inkscape:tiled-clone-of="#circle819"
       xlink:href="#circle819"
       transform="rotate(180,124.0356,109.96548)"
       id="use2417"
       width="100%"
       height="100%" />
    <use
       x="0"
       y="0"
       inkscape:tiled-clone-of="#circle819"
       xlink:href="#circle819"
       transform="rotate(-150,120.51449,102.05137)"
       id="use2419"
       width="100%"
       height="100%" />
    <use
       x="0"
       y="0"
       inkscape:tiled-clone-of="#circle819"
       xlink:href="#circle819"
       transform="rotate(-120,124.05501,75.480105)"
       id="use2421"
       width="100%"
       height="100%" />
    <use
       x="0"
       y="0"
       inkscape:tiled-clone-of="#circle819"
       xlink:href="#circle819"
       transform="rotate(-90,118.55127,74.277417)"
       id="use2423"
       width="100%"
       height="100%" />
    <use
       x="0"
       y="0"
       inkscape:tiled-clone-of="#circle819"
       xlink:href="#circle819"
       transform="rotate(-60,123.30509,115.28049)"
       id="use2425"
       width="100%"
       height="100%" />
    <use
       x="0"
       y="0"
       inkscape:tiled-clone-of="#circle819"
       xlink:href="#circle819"
       transform="translate(41.372618,97.092918)"
       id="use2429"
       width="100%"
       height="100%" />
    <use
       x="0"
       y="0"
       inkscape:tiled-clone-of="#circle819"
       xlink:href="#circle819"
       transform="rotate(30,-70.316259,144.67448)"
       id="use2431"
       width="100%"
       height="100%" />
    <use
       x="0"
       y="0"
       inkscape:tiled-clone-of="#circle819"
       xlink:href="#circle819"
       transform="rotate(60,77.75421,114.68443)"
       id="use2433"
       width="100%"
       height="100%" />
    <use
       x="0"
       y="0"
       inkscape:tiled-clone-of="#circle819"
       xlink:href="#circle819"
       transform="rotate(90,103.40818,97.96408)"
       id="use2435"
       width="100%"
       height="100%" />
    <use
       x="0"
       y="0"
       inkscape:tiled-clone-of="#circle819"
       xlink:href="#circle819"
       transform="rotate(150,95.008675,124.13698)"
       id="use2439"
       width="100%"
       height="100%" />
    <use
       x="0"
       y="0"
       inkscape:tiled-clone-of="#circle819"
       xlink:href="#circle819"
       transform="rotate(-150,101.37455,145.68474)"
       id="use2443"
       width="100%"
       height="100%" />
    <use
       x="0"
       y="0"
       inkscape:tiled-clone-of="#circle819"
       xlink:href="#circle819"
       transform="rotate(-120,92.364921,116.47984)"
       id="use2445"
       width="100%"
       height="100%" />
    <use
       x="0"
       y="0"
       inkscape:tiled-clone-of="#circle819"
       xlink:href="#circle819"
       transform="rotate(-60,179.20121,120.52936)"
       id="use2449"
       width="100%"
       height="100%" />
    <use
       x="0"
       y="0"
       inkscape:tiled-clone-of="#circle819"
       xlink:href="#circle819"
       transform="rotate(-30,287.76639,56.170191)"
       id="use2451"
       width="100%"
       height="100%" />
    <use
       x="0"
       y="0"
       inkscape:tiled-clone-of="#circle819"
       xlink:href="#circle819"
       transform="rotate(30,-135.12786,112.01604)"
       id="use2455"
       width="100%"
       height="100%" />
    <use
       x="0"
       y="0"
       inkscape:tiled-clone-of="#circle819"
       xlink:href="#circle819"
       transform="rotate(60,21.25734,86.396075)"
       id="use2457"
       width="100%"
       height="100%" />
    <use
       x="0"
       y="0"
       inkscape:tiled-clone-of="#circle819"
       xlink:href="#circle819"
       transform="rotate(90,64.2268,72.665658)"
       id="use2459"
       width="100%"
       height="100%" />
    <use
       x="0"
       y="0"
       inkscape:tiled-clone-of="#circle819"
       xlink:href="#circle819"
       transform="rotate(150,112.32095,132.25029)"
       id="use2463"
       width="100%"
       height="100%" />
    <use
       x="0"
       y="0"
       inkscape:tiled-clone-of="#circle819"
       xlink:href="#circle819"
       transform="rotate(180,105.79618,113.57654)"
       id="use2465"
       width="100%"
       height="100%" />
    <use
       x="0"
       y="0"
       inkscape:tiled-clone-of="#circle819"
       xlink:href="#circle819"
       transform="rotate(-150,99.704895,125.73294)"
       id="use2467"
       width="100%"
       height="100%" />
    <use
       x="0"
       y="0"
       inkscape:tiled-clone-of="#circle819"
       xlink:href="#circle819"
       transform="rotate(-120,111.48859,82.950132)"
       id="use2469"
       width="100%"
       height="100%" />
    <use
       x="0"
       y="0"
       inkscape:tiled-clone-of="#circle819"
       xlink:href="#circle819"
       transform="rotate(-90,155.24901,115.8917)"
       id="use2471"
       width="100%"
       height="100%" />
    <use
       x="0"
       y="0"
       inkscape:tiled-clone-of="#circle819"
       xlink:href="#circle819"
       transform="rotate(-60,187.53293,83.304733)"
       id="use2473"
       width="100%"
       height="100%" />
    <use
       x="0"
       y="0"
       inkscape:tiled-clone-of="#circle819"
       xlink:href="#circle819"
       transform="rotate(-30,167.8595,189.43507)"
       id="use2475"
       width="100%"
       height="100%" />
    <use
       x="0"
       y="0"
       inkscape:tiled-clone-of="#circle819"
       xlink:href="#circle819"
       transform="rotate(30,-59.092143,15.202763)"
       id="use2479"
       width="100%"
       height="100%" />
    <use
       x="0"
       y="0"
       inkscape:tiled-clone-of="#circle819"
       xlink:href="#circle819"
       transform="rotate(120,63.876068,126.93723)"
       id="use2485"
       width="100%"
       height="100%" />
    <use
       x="0"
       y="0"
       inkscape:tiled-clone-of="#circle819"
       xlink:href="#circle819"
       transform="rotate(150,86.17144,101.98821)"
       id="use2487"
       width="100%"
       height="100%" />
    <use
       x="0"
       y="0"
       inkscape:tiled-clone-of="#circle819"
       xlink:href="#circle819"
       transform="rotate(180,101.64704,118.19043)"
       id="use2489"
       width="100%"
       height="100%" />
    <use
       x="0"
       y="0"
       inkscape:tiled-clone-of="#circle819"
       xlink:href="#circle819"
       transform="rotate(-150,137.46331,142.78953)"
       id="use2491"
       width="100%"
       height="100%" />
    <use
       x="0"
       y="0"
       inkscape:tiled-clone-of="#circle819"
       xlink:href="#circle819"
       transform="rotate(-120,137.44314,105.68368)"
       id="use2493"
       width="100%"
       height="100%" />
    <use
       x="0"
       y="0"
       inkscape:tiled-clone-of="#circle819"
       xlink:href="#circle819"
       transform="rotate(-90,115.53054,137.45958)"
       id="use2495"
       width="100%"
       height="100%" />
    <use
       x="0"
       y="0"
       inkscape:tiled-clone-of="#circle819"
       xlink:href="#circle819"
       transform="rotate(-60,109.83442,117.96348)"
       id="use2497"
       width="100%"
       height="100%" />
    <use
       x="0"
       y="0"
       inkscape:tiled-clone-of="#circle819"
       xlink:href="#circle819"
       transform="rotate(-30,238.45793,182.90073)"
       id="use2499"
       width="100%"
       height="100%" />
    <use
       x="0"
       y="0"
       inkscape:tiled-clone-of="#circle819"
       xlink:href="#circle819"
       transform="translate(-12.02378,111.69103)"
       id="use2501"
       width="100%"
       height="100%" />
    <use
       x="0"
       y="0"
       inkscape:tiled-clone-of="#circle819"
       xlink:href="#circle819"
       transform="rotate(30,-90.232479,106.35967)"
       id="use2503"
       width="100%"
       height="100%" />
    <use
       x="0"
       y="0"
       inkscape:tiled-clone-of="#circle819"
       xlink:href="#circle819"
       transform="rotate(60,58.42682,97.262095)"
       id="use2505"
       width="100%"
       height="100%" />
    <use
       x="0"
       y="0"
       inkscape:tiled-clone-of="#circle819"
       xlink:href="#circle819"
       transform="rotate(90,28.96243,130.51974)"
       id="use2507"
       width="100%"
       height="100%" />
    <use
       x="0"
       y="0"
       inkscape:tiled-clone-of="#circle819"
       xlink:href="#circle819"
       transform="rotate(150,78.465095,81.429275)"
       id="use2511"
       width="100%"
       height="100%" />
    <use
       x="0"
       y="0"
       inkscape:tiled-clone-of="#circle819"
       xlink:href="#circle819"
       transform="rotate(180,127.13026,117.90078)"
       id="use2513"
       width="100%"
       height="100%" />
    <use
       x="0"
       y="0"
       inkscape:tiled-clone-of="#circle819"
       xlink:href="#circle819"
       transform="rotate(-90,143.42336,174.77216)"
       id="use2519"
       width="100%"
       height="100%" />
    <use
       x="0"
       y="0"
       inkscape:tiled-clone-of="#circle819"
       xlink:href="#circle819"
       transform="translate(48.011945,14.723746)"
       id="use2525"
       width="100%"
       height="100%" />
    <use
       x="0"
       y="0"
       inkscape:tiled-clone-of="#circle819"
       xlink:href="#circle819"
       transform="rotate(30,-109.62134,97.380943)"
       id="use2527"
       width="100%"
       height="100%" />
    <use
       x="0"
       y="0"
       inkscape:tiled-clone-of="#circle819"
       xlink:href="#circle819"
       transform="rotate(60,86.939265,65.988857)"
       id="use2529"
       width="100%"
       height="100%" />
    <use
       x="0"
       y="0"
       inkscape:tiled-clone-of="#circle819"
       xlink:href="#circle819"
       transform="rotate(-150,124.19594,116.20761)"
       id="use2539"
       width="100%"
       height="100%" />
    <use
       x="0"
       y="0"
       inkscape:tiled-clone-of="#circle819"
       xlink:href="#circle819"
       transform="rotate(-120,86.270255,103.82133)"
       id="use2541"
       width="100%"
       height="100%" />
    <use
       x="0"
       y="0"
       inkscape:tiled-clone-of="#circle819"
       xlink:href="#circle819"
       transform="rotate(-30,202.24576,63.249176)"
       id="use2547"
       width="100%"
       height="100%" />
    <rect
       style="color:#000000;display:inline;overflow:visible;visibility:visible;opacity:1;fill:#040000;fill-opacity:0;fill-rule:nonzero;stroke:#000000;stroke-width:1.30545413;stroke-linecap:round;stroke-miterlimit:4;stroke-dasharray:none;stroke-dashoffset:0;stroke-opacity:1;marker:none;enable-background:accumulate"
       id="rect2551"
       width="112.05495"
       height="137.43956"
       x="44.604397"
       y="83.769234"
       ry="10.879121" />
    <path
       style="fill:none;fill-rule:evenodd;stroke:#000000;stroke-width:1;stroke-linecap:butt;stroke-linejoin:miter;stroke-miterlimit:4;stroke-dasharray:none;stroke-opacity:1;marker-end:url(#Arrow1Mend)"
       d="m 155.93406,108.91112 h 22.48352"
       id="path2553"
       inkscape:connector-curvature="0" />
    <text
       xml:space="preserve"
       style="font-style:normal;font-variant:normal;font-weight:normal;font-stretch:normal;font-size:7.9375px;line-height:6.61458302px;font-family:'Nimbus Roman No9 L';-inkscape-font-specification:'Nimbus Roman No9 L';letter-spacing:0px;word-spacing:0px;fill:#000000;fill-opacity:1;stroke:none;stroke-width:0.26458332px;stroke-linecap:butt;stroke-linejoin:miter;stroke-opacity:1"
       x="183.13188"
       y="107.70329"
       id="text2871"><tspan
         sodipodi:role="line"
         id="tspan2869"
         x="183.13188"
         y="107.70329"
         style="font-weight:bold;stroke-width:0.26458332px">Population totale : effectif très important</tspan><tspan
         sodipodi:role="line"
         x="183.13188"
         y="114.37344"
         style="stroke-width:0.26458332px"
         id="tspan2873">Paramètre à estimer : $E(X) = m$</tspan></text>
    <path
       style="fill:none;fill-rule:evenodd;stroke:#000000;stroke-width:1;stroke-linecap:butt;stroke-linejoin:miter;stroke-miterlimit:4;stroke-dasharray:none;stroke-opacity:1"
       d="m 111.69231,158.83516 c -0.48352,-0.12088 -1.00477,-0.13975 -1.45055,-0.36264 -0.10812,-0.054 0.0855,-0.27716 0,-0.36263 -0.0855,-0.0855 -0.24176,0 -0.36264,0 -0.17098,0 -1.79675,0.0164 -1.81319,0 -0.0855,-0.0855 0.0855,-0.27717 0,-0.36264 -0.17095,-0.17095 -0.50904,0.10812 -0.72527,0 -0.1529,-0.0764 -0.20974,-0.28619 -0.36264,-0.36264 -0.22793,-0.11396 -1.22262,0.11397 -1.45055,0 -0.1529,-0.0765 -0.20973,-0.28618 -0.36264,-0.36263 -0.19672,-0.0984 -1.35132,0.0992 -1.45055,0 -0.0855,-0.0855 0.0855,-0.27717 0,-0.36264 -0.0873,-0.0873 -1.36328,0.0873 -1.45054,0 -0.0855,-0.0855 0.0855,-0.27716 0,-0.36264 -0.0855,-0.0855 -0.24176,0 -0.36264,0 -0.6044,0 -1.20879,0 -1.81319,0 -0.120877,0 -0.241757,0 -0.362638,0 -0.120877,0 -0.277161,0.0855 -0.362635,0 -0.08548,-0.0855 0.08547,-0.27716 0,-0.36264 -0.08548,-0.0855 -0.24176,0 -0.362638,0 -0.163317,0 -0.977551,-0.0552 -1.087914,0 -0.1529,0.0765 -0.200458,0.30858 -0.362635,0.36264 -0.229354,0.0765 -0.483518,0 -0.725276,0 -0.241757,0 -0.483515,0 -0.725273,0 -1.087914,0 -2.175825,0 -3.263738,0 -0.18963,0 -1.355196,-0.0477 -1.450549,0 -0.1529,0.0765 -0.209736,0.28619 -0.362638,0.36264 -0.143783,0.0719 -1.013775,-0.0741 -1.087911,0 -0.08547,0.0855 0.08547,0.27716 0,0.36264 -0.08547,0.0855 -0.254519,-0.0541 -0.362638,0 -0.1529,0.0764 -0.209736,0.28618 -0.362638,0.36263 -0.108117,0.0541 -0.254519,-0.0541 -0.362635,0 -0.152903,0.0764 -0.209738,0.28619 -0.362638,0.36264 -0.108117,0.0541 -0.254522,-0.0541 -0.362638,0 -0.435166,0.21758 -0.652749,0.87033 -1.087911,1.08791 -0.10812,0.0541 -0.277165,-0.0855 -0.362638,0 -0.08547,0.0855 0.05406,0.25452 0,0.36264 -0.07645,0.1529 -0.241758,0.24176 -0.362638,0.36264 -0.120878,0.12088 -0.209735,0.28618 -0.362638,0.36264 -0.108117,0.054 -0.277162,-0.0855 -0.362635,0 -0.17095,0.17094 0.108116,0.50904 0,0.72527 -1.202719,1.20272 0.170947,-0.3419 -0.362638,0.72527 -0.152903,0.30581 -0.572373,0.41948 -0.725276,0.72528 -0.05406,0.10812 0.05406,0.25452 0,0.36264 -0.07645,0.1529 -0.308578,0.20046 -0.362638,0.36263 -0.07645,0.22936 0.07645,0.49593 0,0.72528 -0.108117,0.32435 -0.572373,0.41947 -0.725273,0.72527 -0.05406,0.10812 0,0.24176 0,0.36264 0,0.12088 0,0.24176 0,0.36264 0,0.72527 0,1.45055 0,2.17582 0,0.36264 0.114675,0.74389 0,1.08791 -0.05406,0.16218 -0.286187,0.20974 -0.362638,0.36264 -0.04064,0.0813 0,1.36438 0,1.45055 0,0.84615 0,1.69231 0,2.53846 0,0.088 -0.01167,1.07625 0,1.08792 0.08547,0.0855 0.277164,-0.0855 0.362638,0 0.08547,0.0855 0,0.24175 0,0.36263 0,0.6044 0,1.20879 0,1.81319 0,0.12088 -0.08547,0.27716 0,0.36264 0.08547,0.0855 0.277161,-0.0855 0.362638,0 0.08547,0.0855 0,0.24175 0,0.36263 0,0.25223 -0.06557,1.68205 0,1.81319 0.07645,0.1529 0.286186,0.20974 0.362635,0.36264 0.05406,0.10811 0,0.24176 0,0.36264 0,0.12087 0,0.24175 0,0.36263 0,1.69231 0,3.38462 0,5.07692 0,0.25704 0.04688,2.08207 0,2.17583 -0.07645,0.1529 -0.286187,0.20973 -0.362635,0.36264 -0.02477,0.0495 -0.02477,2.12629 0,2.17582 0.07645,0.1529 0.286186,0.20974 0.362635,0.36264 0.108119,0.21623 -0.108117,0.50904 0,0.72527 0.07645,0.15291 0.286187,0.20974 0.362638,0.36264 0.05406,0.10812 -0.08547,0.27716 0,0.36264 0.08548,0.0855 0.277164,-0.0855 0.362638,0 0.08547,0.0855 -0.05406,0.25452 0,0.36263 0.07645,0.15291 0.286186,0.20974 0.362638,0.36264 0.108116,0.21624 -0.17095,0.55433 0,0.72528 0.08547,0.0855 0.254518,-0.0541 0.362638,0 0.1529,0.0764 0.209735,0.28618 0.362635,0.36264 0.108119,0.054 0.277164,-0.0855 0.362638,0 0.08547,0.0855 -0.108117,0.30857 0,0.36263 0.216236,0.10812 0.495924,-0.0764 0.725276,0 0.324352,0.10812 0.41947,0.57237 0.725273,0.72528 0.227925,0.11396 1.222623,-0.11397 1.450549,0 0.152902,0.0764 0.209738,0.28618 0.362638,0.36263 0.425225,0.21262 0.430411,-0.2152 0.725276,-0.36263 0.213963,-0.10698 0.838477,0.0831 1.087911,0 0.256423,-0.0855 0.468852,-0.27717 0.725275,-0.36264 0.229352,-0.0764 0.50904,0.10812 0.725274,0 0.152902,-0.0764 0.209737,-0.28619 0.362638,-0.36264 0.216236,-0.10812 0.509039,0.10812 0.725275,0 0.1529,-0.0764 0.209736,-0.28619 0.362638,-0.36263 0.108117,-0.0541 0.254519,0.054 0.362636,0 0.152902,-0.0765 0.209737,-0.28619 0.362637,-0.36264 0.108117,-0.0541 0.247963,0.0382 0.362638,0 0.256424,-0.0855 0.468853,-0.27717 0.725276,-0.36264 0.229352,-0.0764 0.495922,0.0764 0.725273,0 0.256424,-0.0855 0.468853,-0.27716 0.725276,-0.36264 0.229352,-0.0764 0.50904,0.10812 0.725273,0 0.152903,-0.0764 0.209738,-0.28618 0.362638,-0.36264 0.143783,-0.0719 1.013775,0.0741 1.087911,0 0.08548,-0.0855 -0.08547,-0.27716 0,-0.36263 0.09923,-0.0992 1.253828,0.0984 1.450548,0 0.1529,-0.0764 0.20974,-0.28619 0.36264,-0.36264 0.21624,-0.10812 0.50904,0.10812 0.72528,0 0.1529,-0.0764 0.20973,-0.28619 0.36263,-0.36264 0.21624,-0.10811 0.50904,0.10812 0.72528,0 0.1529,-0.0765 0.20973,-0.28618 0.36263,-0.36264 0.21624,-0.10811 0.50904,0.10812 0.72528,0 0.1529,-0.0764 0.20974,-0.28618 0.36264,-0.36263 0.21623,-0.10812 0.50904,0.10812 0.72527,0 0.1529,-0.0764 0.20974,-0.28619 0.36264,-0.36264 0.21623,-0.10812 0.55432,0.17095 0.72527,0 0.0855,-0.0855 -0.0855,-0.27716 0,-0.36264 0.17095,-0.17095 0.50904,0.10812 0.72528,0 0.1529,-0.0764 0.20973,-0.28618 0.36264,-0.36263 0.21623,-0.10812 0.50904,0.10811 0.72527,0 0.1529,-0.0765 0.20974,-0.28619 0.36264,-0.36264 0.10812,-0.0541 0.27716,0.0855 0.36263,0 0.0855,-0.0855 -0.0855,-0.27716 0,-0.36264 0.17095,-0.17095 0.55433,0.17095 0.72528,0 0.0855,-0.0855 -0.0855,-0.27716 0,-0.36264 0.0855,-0.0855 0.25452,0.0541 0.36264,0 0.1529,-0.0764 0.20973,-0.28618 0.36263,-0.36263 0.10812,-0.0541 0.27717,0.0855 0.36264,0 0.0855,-0.0855 -0.0855,-0.27717 0,-0.36264 0.0855,-0.0855 0.25452,0.0541 0.36264,0 1.50921,-0.75461 -0.38767,0.025 0.36264,-0.72527 0.0855,-0.0855 0.27716,0.0855 0.36263,0 0.0855,-0.0855 -0.0541,-0.25453 0,-0.36264 0.0764,-0.1529 0.28619,-0.20974 0.36264,-0.36264 0.0541,-0.10812 -0.0855,-0.27716 0,-0.36264 0.0855,-0.0855 0.27717,0.0855 0.36264,0 0.0855,-0.0855 -0.0541,-0.25452 0,-0.36264 0.1529,-0.3058 0.57237,-0.41947 0.72527,-0.72527 0.0541,-0.10812 -0.0541,-0.25452 0,-0.36264 0.0765,-0.1529 0.28619,-0.20973 0.36264,-0.36263 0.0541,-0.10812 -0.0541,-0.25452 0,-0.36264 0.1529,-0.3058 0.57237,-0.41947 0.72528,-0.72528 0.054,-0.10811 -0.0541,-0.25452 0,-0.36263 0.1529,-0.30581 0.57237,-0.41948 0.72527,-0.72528 0.10812,-0.21623 -0.17095,-0.55432 0,-0.72527 0.0855,-0.0855 0.27716,0.0855 0.36264,0 0.17095,-0.17095 -0.17095,-0.55433 0,-0.72528 0.0855,-0.0855 0.27716,0.0855 0.36263,0 0.17095,-0.17095 -0.17095,-0.55432 0,-0.72527 0.0855,-0.0855 0.30858,0.10811 0.36264,0 0.10812,-0.21624 -0.10812,-0.50904 0,-0.72528 0.0541,-0.10811 0.27716,0.0855 0.36264,0 0.0855,-0.0855 -0.0855,-0.27716 0,-0.36264 0.0855,-0.0855 0.27716,0.0855 0.36264,0 0.17095,-0.17094 -0.10812,-0.50904 0,-0.72527 0.0764,-0.1529 0.28618,-0.20973 0.36263,-0.36264 0.0541,-0.10811 -0.0541,-0.25452 0,-0.36263 0.0764,-0.1529 0.28619,-0.20974 0.36264,-0.36264 0.10812,-0.21624 -0.10812,-0.50904 0,-0.72528 0.0764,-0.1529 0.28619,-0.20973 0.36264,-0.36263 0.10812,-0.21624 -0.10812,-0.50904 0,-0.72528 0.0764,-0.1529 0.28619,-0.20973 0.36264,-0.36263 0.14505,-0.29012 -0.14506,-0.79781 0,-1.08792 0.0764,-0.1529 0.28618,-0.20973 0.36263,-0.36263 0.11619,-0.23237 -0.1126,-1.95062 0,-2.17583 0.0765,-0.1529 0.30858,-0.20046 0.36264,-0.36264 0.33017,-0.99049 -0.0625,-0.48766 -0.36264,-1.08791 -0.11396,-0.22792 0.11397,-1.22262 0,-1.45055 -0.0764,-0.1529 -0.28618,-0.20973 -0.36263,-0.36263 -0.0541,-0.10812 0.0541,-0.25453 0,-0.36264 -0.0764,-0.15291 -0.28619,-0.20974 -0.36264,-0.36264 -0.0541,-0.10812 0.0541,-0.25452 0,-0.36264 -0.0764,-0.1529 -0.28619,-0.20973 -0.36264,-0.36263 -0.0541,-0.10812 0,-0.24176 0,-0.36264 -0.12088,-0.12088 -0.28619,-0.20974 -0.36264,-0.36264 -0.0541,-0.10812 0.0855,-0.27716 0,-0.36264 -0.0855,-0.0855 -0.27716,0.0855 -0.36263,0 -0.0855,-0.0855 0.0541,-0.25452 0,-0.36264 -0.1529,-0.3058 -0.57238,-0.41947 -0.72528,-0.72527 -0.0541,-0.10812 0.0855,-0.27716 0,-0.36264 -0.0855,-0.0855 -0.27716,0.0855 -0.36264,0 -0.0855,-0.0855 0.0541,-0.25451 0,-0.36263 -0.0481,-0.0963 -0.99162,-1.03977 -1.08791,-1.08792 -0.10812,-0.054 -0.25452,0.0541 -0.36263,0 -0.15291,-0.0764 -0.20974,-0.28618 -0.36264,-0.36263 -0.10812,-0.0541 -0.25452,0.0541 -0.36264,0 -0.3058,-0.1529 -0.41947,-0.57238 -0.72527,-0.72528 -0.10812,-0.0541 -0.27717,0.0855 -0.36264,0 -0.42737,-0.42737 -0.72528,-0.96703 -1.08791,-1.45055 z"
       id="path2890"
       inkscape:connector-curvature="0" />
    <path
       style="fill:none;fill-rule:evenodd;stroke:#000000;stroke-width:1;stroke-linecap:butt;stroke-linejoin:miter;stroke-miterlimit:4;stroke-dasharray:none;stroke-opacity:1;marker-end:url(#Arrow1Mend-3)"
       d="m 116.40659,178.41758 h 62.01099"
       id="path2553-7"
       inkscape:connector-curvature="0"
       sodipodi:nodetypes="cc" />
    <text
       xml:space="preserve"
       style="font-style:normal;font-variant:normal;font-weight:normal;font-stretch:normal;font-size:7.9375px;line-height:6.61458302px;font-family:'Nimbus Roman No9 L';-inkscape-font-specification:'Nimbus Roman No9 L';letter-spacing:0px;word-spacing:0px;fill:#000000;fill-opacity:1;stroke:none;stroke-width:0.26458332px;stroke-linecap:butt;stroke-linejoin:miter;stroke-opacity:1"
       x="183.13188"
       y="177.19388"
       id="text3293"><tspan
         sodipodi:role="line"
         id="tspan3291"
         x="183.13188"
         y="177.19388"
         style="font-weight:bold;stroke-width:0.26458332px">Échantillon (effectif $n$ réduit)</tspan><tspan
         sodipodi:role="line"
         x="183.13188"
         y="183.86403"
         style="font-weight:normal;stroke-width:0.26458332px"
         id="tspan3295">On calcule $x_e$, $\sigma_e$, $s$ et $p_e$</tspan></text>
  </g>
</svg>
